<svg xmlns="http://www.w3.org/2000/svg" xmlns:xlink="http://www.w3.org/1999/xlink" width="350" zoomAndPan="magnify" viewBox="0 0 262.5 262.500001" height="350" preserveAspectRatio="xMidYMid meet" version="1.0"><defs><g/><clipPath id="0d12c1913a"><path d="M 96 43 L 235.800781 43 L 235.800781 235.800781 L 96 235.800781 Z M 96 43 " clip-rule="nonzero"/></clipPath><clipPath id="9472d6c297"><path d="M 96 139 L 127 139 L 127 235.800781 L 96 235.800781 Z M 96 139 " clip-rule="nonzero"/></clipPath><clipPath id="805102e72e"><path d="M 122 26.199219 L 210 26.199219 L 210 70 L 122 70 Z M 122 26.199219 " clip-rule="nonzero"/></clipPath><clipPath id="356b988390"><path d="M 26.199219 43 L 114 43 L 114 131 L 26.199219 131 Z M 26.199219 43 " clip-rule="nonzero"/></clipPath><clipPath id="8c4ce75144"><path d="M 26.199219 139 L 123 139 L 123 235.800781 L 26.199219 235.800781 Z M 26.199219 139 " clip-rule="nonzero"/></clipPath><clipPath id="f638b93884"><path d="M 26.199219 139 L 123 139 L 123 166 L 26.199219 166 Z M 26.199219 139 " clip-rule="nonzero"/></clipPath><clipPath id="8c5bad0d57"><path d="M 26.199219 165 L 123 165 L 123 171 L 26.199219 171 Z M 26.199219 165 " clip-rule="nonzero"/></clipPath></defs><g clip-path="url(#0d12c1913a)"><path fill="#0a5078" d="M 104.800781 235.800781 L 227.066406 235.800781 C 231.894531 235.800781 235.800781 231.894531 235.800781 227.066406 L 235.800781 52.398438 C 235.800781 47.574219 231.894531 43.667969 227.066406 43.667969 L 104.800781 43.667969 C 99.976562 43.667969 96.066406 47.574219 96.066406 52.398438 L 96.066406 227.066406 C 96.066406 231.894531 99.976562 235.800781 104.800781 235.800781 Z M 104.800781 235.800781 " fill-opacity="1" fill-rule="nonzero"/></g><g clip-path="url(#9472d6c297)"><path fill="#00325a" d="M 126.632812 227.066406 L 126.632812 148.46875 C 126.632812 143.640625 122.726562 139.734375 117.902344 139.734375 L 96.066406 139.734375 L 96.066406 227.066406 C 96.066406 231.894531 99.976562 235.800781 104.800781 235.800781 L 117.902344 235.800781 C 122.726562 235.800781 126.632812 231.894531 126.632812 227.066406 Z M 126.632812 227.066406 " fill-opacity="1" fill-rule="nonzero"/></g><path fill="#00325a" d="M 117.902344 87.332031 C 117.902344 71.359375 109.296875 57.429688 96.5 49.820312 C 96.242188 50.640625 96.066406 51.496094 96.066406 52.398438 L 96.066406 125.109375 C 109.105469 117.554688 117.902344 103.484375 117.902344 87.332031 Z M 117.902344 87.332031 " fill-opacity="1" fill-rule="nonzero"/><path fill="#00325a" d="M 113.535156 56.765625 L 218.335938 56.765625 C 223.160156 56.765625 227.066406 60.675781 227.066406 65.5 L 227.066406 196.5 C 213.425781 210.140625 205.777344 217.792969 192.132812 231.433594 L 113.535156 231.433594 C 108.707031 231.433594 104.800781 227.527344 104.800781 222.699219 L 104.800781 65.5 C 104.800781 60.675781 108.707031 56.765625 113.535156 56.765625 Z M 113.535156 56.765625 " fill-opacity="1" fill-rule="nonzero"/><path fill="#f0f0f0" d="M 113.535156 52.398438 L 218.335938 52.398438 C 223.160156 52.398438 227.066406 56.308594 227.066406 61.132812 L 227.066406 192.132812 C 213.425781 205.777344 205.777344 213.425781 192.132812 227.066406 L 113.535156 227.066406 C 108.707031 227.066406 104.800781 223.160156 104.800781 218.335938 L 104.800781 61.132812 C 104.800781 56.308594 108.707031 52.398438 113.535156 52.398438 Z M 113.535156 52.398438 " fill-opacity="1" fill-rule="nonzero"/><path fill="#d2d2d2" d="M 117.902344 139.734375 L 104.800781 139.734375 L 104.800781 218.335938 C 104.800781 223.160156 108.707031 227.066406 113.535156 227.066406 L 126.632812 227.066406 L 126.632812 148.46875 C 126.632812 143.640625 122.726562 139.734375 117.902344 139.734375 Z M 117.902344 139.734375 " fill-opacity="1" fill-rule="nonzero"/><path fill="#d2d2d2" d="M 104.800781 61.132812 L 104.800781 118.449219 C 112.875 110.539062 117.902344 99.535156 117.902344 87.332031 C 117.902344 75.636719 113.253906 65.0625 105.757812 57.234375 C 105.167969 58.414062 104.800781 59.722656 104.800781 61.132812 Z M 104.800781 61.132812 " fill-opacity="1" fill-rule="nonzero"/><path fill="#d2d2d2" d="M 170.300781 104.800781 L 117.902344 104.800781 C 115.488281 104.800781 113.535156 102.84375 113.535156 100.433594 C 113.535156 98.023438 115.488281 96.066406 117.902344 96.066406 L 170.300781 96.066406 C 172.710938 96.066406 174.667969 98.023438 174.667969 100.433594 C 174.667969 102.84375 172.710938 104.800781 170.300781 104.800781 Z M 170.300781 104.800781 " fill-opacity="1" fill-rule="nonzero"/><path fill="#00a0c8" d="M 196.5 109.167969 C 195.382812 109.167969 194.265625 108.738281 193.414062 107.886719 L 184.679688 99.152344 C 182.972656 97.445312 182.972656 94.6875 184.679688 92.980469 C 186.386719 91.273438 189.148438 91.273438 190.855469 92.980469 L 196.5 98.625 L 210.878906 84.246094 C 212.585938 82.539062 215.347656 82.539062 217.054688 84.246094 C 218.761719 85.953125 218.761719 88.714844 217.054688 90.421875 L 199.589844 107.886719 C 198.738281 108.738281 197.617188 109.167969 196.5 109.167969 Z M 196.5 109.167969 " fill-opacity="1" fill-rule="nonzero"/><path fill="#d2d2d2" d="M 170.300781 139.734375 L 117.902344 139.734375 C 115.488281 139.734375 113.535156 137.777344 113.535156 135.367188 C 113.535156 132.957031 115.488281 131 117.902344 131 L 170.300781 131 C 172.710938 131 174.667969 132.957031 174.667969 135.367188 C 174.667969 137.777344 172.710938 139.734375 170.300781 139.734375 Z M 170.300781 139.734375 " fill-opacity="1" fill-rule="nonzero"/><path fill="#00a0c8" d="M 196.5 144.101562 C 195.382812 144.101562 194.265625 143.671875 193.414062 142.820312 L 184.679688 134.085938 C 182.972656 132.378906 182.972656 129.621094 184.679688 127.914062 C 186.386719 126.207031 189.148438 126.207031 190.855469 127.914062 L 196.5 133.558594 L 210.878906 119.179688 C 212.585938 117.472656 215.347656 117.472656 217.054688 119.179688 C 218.761719 120.886719 218.761719 123.648438 217.054688 125.355469 L 199.589844 142.820312 C 198.738281 143.671875 197.617188 144.101562 196.5 144.101562 Z M 196.5 144.101562 " fill-opacity="1" fill-rule="nonzero"/><path fill="#d2d2d2" d="M 170.300781 174.667969 L 117.902344 174.667969 C 115.488281 174.667969 113.535156 172.710938 113.535156 170.300781 C 113.535156 167.890625 115.488281 165.933594 117.902344 165.933594 L 170.300781 165.933594 C 172.710938 165.933594 174.667969 167.890625 174.667969 170.300781 C 174.667969 172.710938 172.710938 174.667969 170.300781 174.667969 Z M 170.300781 174.667969 " fill-opacity="1" fill-rule="nonzero"/><path fill="#00a0c8" d="M 196.5 179.035156 C 195.382812 179.035156 194.265625 178.605469 193.414062 177.753906 L 184.679688 169.019531 C 182.972656 167.3125 182.972656 164.554688 184.679688 162.847656 C 186.386719 161.140625 189.148438 161.140625 190.855469 162.847656 L 196.5 168.492188 L 210.878906 154.113281 C 212.585938 152.40625 215.347656 152.40625 217.054688 154.113281 C 218.761719 155.820312 218.761719 158.582031 217.054688 160.289062 L 199.589844 177.753906 C 198.738281 178.605469 197.617188 179.035156 196.5 179.035156 Z M 196.5 179.035156 " fill-opacity="1" fill-rule="nonzero"/><path fill="#d2d2d2" d="M 227.066406 192.132812 L 200.867188 192.132812 C 196.042969 192.132812 192.132812 196.042969 192.132812 200.867188 L 192.132812 227.066406 Z M 227.066406 192.132812 " fill-opacity="1" fill-rule="nonzero"/><path fill="#d2d2d2" d="M 139.734375 48.035156 L 139.734375 39.300781 C 139.734375 34.476562 143.640625 30.566406 148.46875 30.566406 L 183.402344 30.566406 C 188.226562 30.566406 192.132812 34.476562 192.132812 39.300781 L 192.132812 48.035156 L 200.867188 48.035156 C 205.691406 48.035156 209.601562 51.941406 209.601562 56.765625 L 209.601562 65.5 C 209.601562 70.324219 205.691406 74.234375 200.867188 74.234375 L 131 74.234375 C 126.175781 74.234375 122.265625 70.324219 122.265625 65.5 L 122.265625 56.765625 C 122.265625 51.941406 126.175781 48.035156 131 48.035156 Z M 139.734375 48.035156 " fill-opacity="1" fill-rule="nonzero"/><g clip-path="url(#805102e72e)"><path fill="#fab400" d="M 139.734375 43.667969 L 139.734375 34.933594 C 139.734375 30.109375 143.640625 26.199219 148.46875 26.199219 L 183.402344 26.199219 C 188.226562 26.199219 192.132812 30.109375 192.132812 34.933594 L 192.132812 43.667969 L 200.867188 43.667969 C 205.691406 43.667969 209.601562 47.574219 209.601562 52.398438 L 209.601562 61.132812 C 209.601562 65.957031 205.691406 69.867188 200.867188 69.867188 L 131 69.867188 C 126.175781 69.867188 122.265625 65.957031 122.265625 61.132812 L 122.265625 52.398438 C 122.265625 47.574219 126.175781 43.667969 131 43.667969 Z M 139.734375 43.667969 " fill-opacity="1" fill-rule="nonzero"/></g><path fill="#dc9600" d="M 170.300781 39.300781 C 170.300781 39.585938 170.273438 39.871094 170.214844 40.152344 C 170.160156 40.433594 170.078125 40.707031 169.96875 40.972656 C 169.859375 41.234375 169.722656 41.488281 169.566406 41.726562 C 169.40625 41.964844 169.222656 42.183594 169.023438 42.386719 C 168.820312 42.589844 168.597656 42.773438 168.359375 42.929688 C 168.121094 43.089844 167.871094 43.226562 167.605469 43.335938 C 167.339844 43.445312 167.066406 43.527344 166.785156 43.582031 C 166.503906 43.640625 166.21875 43.667969 165.933594 43.667969 C 165.648438 43.667969 165.363281 43.640625 165.082031 43.582031 C 164.800781 43.527344 164.527344 43.445312 164.261719 43.335938 C 163.996094 43.226562 163.746094 43.089844 163.507812 42.929688 C 163.269531 42.773438 163.050781 42.589844 162.847656 42.386719 C 162.644531 42.183594 162.460938 41.964844 162.304688 41.726562 C 162.144531 41.488281 162.007812 41.234375 161.898438 40.972656 C 161.789062 40.707031 161.707031 40.433594 161.652344 40.152344 C 161.59375 39.871094 161.566406 39.585938 161.566406 39.300781 C 161.566406 39.011719 161.59375 38.730469 161.652344 38.449219 C 161.707031 38.167969 161.789062 37.894531 161.898438 37.628906 C 162.007812 37.363281 162.144531 37.113281 162.304688 36.875 C 162.460938 36.636719 162.644531 36.414062 162.847656 36.210938 C 163.050781 36.007812 163.269531 35.828125 163.507812 35.667969 C 163.746094 35.511719 163.996094 35.375 164.261719 35.265625 C 164.527344 35.15625 164.800781 35.074219 165.082031 35.015625 C 165.363281 34.960938 165.648438 34.933594 165.933594 34.933594 C 166.21875 34.933594 166.503906 34.960938 166.785156 35.015625 C 167.066406 35.074219 167.339844 35.15625 167.605469 35.265625 C 167.871094 35.375 168.121094 35.511719 168.359375 35.667969 C 168.597656 35.828125 168.820312 36.007812 169.023438 36.210938 C 169.222656 36.414062 169.40625 36.636719 169.566406 36.875 C 169.722656 37.113281 169.859375 37.363281 169.96875 37.628906 C 170.078125 37.894531 170.160156 38.167969 170.214844 38.449219 C 170.273438 38.730469 170.300781 39.011719 170.300781 39.300781 Z M 170.300781 39.300781 " fill-opacity="1" fill-rule="nonzero"/><g clip-path="url(#356b988390)"><path fill="#c80a50" d="M 113.535156 87.332031 C 113.535156 88.765625 113.464844 90.191406 113.324219 91.613281 C 113.183594 93.035156 112.972656 94.449219 112.695312 95.851562 C 112.414062 97.253906 112.070312 98.640625 111.652344 100.007812 C 111.238281 101.378906 110.757812 102.722656 110.210938 104.042969 C 109.664062 105.367188 109.050781 106.65625 108.378906 107.917969 C 107.703125 109.179688 106.96875 110.40625 106.175781 111.59375 C 105.378906 112.78125 104.527344 113.929688 103.621094 115.035156 C 102.714844 116.140625 101.753906 117.199219 100.742188 118.210938 C 99.734375 119.222656 98.675781 120.179688 97.570312 121.089844 C 96.464844 121.996094 95.316406 122.847656 94.125 123.640625 C 92.9375 124.4375 91.710938 125.171875 90.453125 125.84375 C 89.191406 126.519531 87.898438 127.128906 86.578125 127.675781 C 85.257812 128.222656 83.910156 128.703125 82.542969 129.121094 C 81.175781 129.535156 79.789062 129.882812 78.386719 130.160156 C 76.984375 130.441406 75.570312 130.648438 74.148438 130.789062 C 72.722656 130.929688 71.296875 131 69.867188 131 C 68.4375 131 67.011719 130.929688 65.585938 130.789062 C 64.164062 130.648438 62.75 130.441406 61.347656 130.160156 C 59.945312 129.882812 58.558594 129.535156 57.191406 129.121094 C 55.824219 128.703125 54.476562 128.222656 53.15625 127.675781 C 51.835938 127.128906 50.542969 126.519531 49.28125 125.84375 C 48.019531 125.171875 46.796875 124.4375 45.605469 123.640625 C 44.417969 122.847656 43.269531 121.996094 42.164062 121.089844 C 41.058594 120.179688 40 119.222656 38.988281 118.210938 C 37.980469 117.199219 37.019531 116.140625 36.113281 115.035156 C 35.203125 113.929688 34.355469 112.78125 33.558594 111.59375 C 32.765625 110.40625 32.03125 109.179688 31.355469 107.917969 C 30.683594 106.65625 30.070312 105.367188 29.523438 104.042969 C 28.976562 102.722656 28.496094 101.378906 28.082031 100.007812 C 27.664062 98.640625 27.316406 97.253906 27.039062 95.851562 C 26.761719 94.449219 26.550781 93.035156 26.410156 91.613281 C 26.269531 90.191406 26.199219 88.765625 26.199219 87.332031 C 26.199219 85.902344 26.269531 84.476562 26.410156 83.054688 C 26.550781 81.628906 26.761719 80.21875 27.039062 78.816406 C 27.316406 77.410156 27.664062 76.027344 28.082031 74.65625 C 28.496094 73.289062 28.976562 71.945312 29.523438 70.625 C 30.070312 69.300781 30.683594 68.011719 31.355469 66.75 C 32.03125 65.488281 32.765625 64.261719 33.558594 63.074219 C 34.355469 61.882812 35.203125 60.738281 36.113281 59.632812 C 37.019531 58.527344 37.980469 57.46875 38.988281 56.457031 C 40 55.445312 41.058594 54.484375 42.164062 53.578125 C 43.269531 52.671875 44.417969 51.820312 45.605469 51.027344 C 46.796875 50.230469 48.019531 49.496094 49.28125 48.824219 C 50.542969 48.148438 51.835938 47.539062 53.15625 46.992188 C 54.476562 46.445312 55.824219 45.960938 57.191406 45.546875 C 58.558594 45.132812 59.945312 44.785156 61.347656 44.507812 C 62.75 44.226562 64.164062 44.015625 65.585938 43.878906 C 67.011719 43.738281 68.4375 43.667969 69.867188 43.667969 C 71.296875 43.667969 72.722656 43.738281 74.148438 43.878906 C 75.570312 44.015625 76.984375 44.226562 78.386719 44.507812 C 79.789062 44.785156 81.175781 45.132812 82.542969 45.546875 C 83.910156 45.960938 85.257812 46.445312 86.578125 46.992188 C 87.898438 47.539062 89.191406 48.148438 90.453125 48.824219 C 91.710938 49.496094 92.9375 50.230469 94.125 51.027344 C 95.316406 51.820312 96.464844 52.671875 97.570312 53.578125 C 98.675781 54.484375 99.734375 55.445312 100.742188 56.457031 C 101.753906 57.46875 102.714844 58.527344 103.621094 59.632812 C 104.527344 60.738281 105.378906 61.882812 106.175781 63.074219 C 106.96875 64.261719 107.703125 65.488281 108.378906 66.75 C 109.050781 68.011719 109.664062 69.300781 110.210938 70.625 C 110.757812 71.945312 111.238281 73.289062 111.652344 74.65625 C 112.070312 76.027344 112.414062 77.410156 112.695312 78.816406 C 112.972656 80.21875 113.183594 81.628906 113.324219 83.054688 C 113.464844 84.476562 113.535156 85.902344 113.535156 87.332031 Z M 113.535156 87.332031 " fill-opacity="1" fill-rule="nonzero"/></g><path fill="#f0f0f0" d="M 104.800781 87.332031 C 104.800781 88.476562 104.746094 89.617188 104.632812 90.757812 C 104.519531 91.894531 104.351562 93.027344 104.128906 94.148438 C 103.90625 95.269531 103.628906 96.378906 103.296875 97.472656 C 102.964844 98.570312 102.578125 99.644531 102.140625 100.703125 C 101.703125 101.757812 101.214844 102.792969 100.675781 103.800781 C 100.136719 104.808594 99.546875 105.789062 98.914062 106.742188 C 98.277344 107.691406 97.597656 108.609375 96.871094 109.496094 C 96.144531 110.378906 95.378906 111.226562 94.570312 112.035156 C 93.757812 112.84375 92.914062 113.613281 92.027344 114.335938 C 91.144531 115.0625 90.226562 115.742188 89.273438 116.378906 C 88.324219 117.015625 87.34375 117.601562 86.335938 118.140625 C 85.324219 118.679688 84.292969 119.171875 83.234375 119.609375 C 82.179688 120.046875 81.101562 120.429688 80.007812 120.761719 C 78.914062 121.09375 77.804688 121.371094 76.683594 121.597656 C 75.558594 121.820312 74.429688 121.988281 73.289062 122.097656 C 72.152344 122.210938 71.011719 122.265625 69.867188 122.265625 C 68.722656 122.265625 67.582031 122.210938 66.441406 122.097656 C 65.304688 121.988281 64.175781 121.820312 63.050781 121.597656 C 61.929688 121.371094 60.820312 121.09375 59.726562 120.761719 C 58.632812 120.429688 57.554688 120.046875 56.5 119.609375 C 55.441406 119.171875 54.410156 118.679688 53.398438 118.140625 C 52.390625 117.601562 51.410156 117.015625 50.457031 116.378906 C 49.507812 115.742188 48.589844 115.0625 47.707031 114.335938 C 46.820312 113.613281 45.972656 112.84375 45.164062 112.035156 C 44.355469 111.226562 43.589844 110.378906 42.863281 109.496094 C 42.136719 108.609375 41.457031 107.691406 40.820312 106.742188 C 40.183594 105.789062 39.597656 104.808594 39.058594 103.800781 C 38.519531 102.792969 38.03125 101.757812 37.59375 100.703125 C 37.15625 99.644531 36.769531 98.570312 36.4375 97.472656 C 36.105469 96.378906 35.828125 95.269531 35.605469 94.148438 C 35.382812 93.027344 35.214844 91.894531 35.101562 90.757812 C 34.988281 89.617188 34.933594 88.476562 34.933594 87.332031 C 34.933594 86.191406 34.988281 85.046875 35.101562 83.910156 C 35.214844 82.769531 35.382812 81.640625 35.605469 80.519531 C 35.828125 79.394531 36.105469 78.289062 36.4375 77.191406 C 36.769531 76.097656 37.15625 75.023438 37.59375 73.964844 C 38.03125 72.90625 38.519531 71.875 39.058594 70.867188 C 39.597656 69.855469 40.183594 68.878906 40.820312 67.925781 C 41.457031 66.972656 42.136719 66.054688 42.863281 65.171875 C 43.589844 64.289062 44.355469 63.441406 45.164062 62.632812 C 45.972656 61.824219 46.820312 61.054688 47.707031 60.328125 C 48.589844 59.605469 49.507812 58.921875 50.457031 58.289062 C 51.410156 57.652344 52.390625 57.0625 53.398438 56.523438 C 54.410156 55.984375 55.441406 55.496094 56.5 55.058594 C 57.554688 54.621094 58.632812 54.238281 59.726562 53.90625 C 60.820312 53.574219 61.929688 53.292969 63.050781 53.070312 C 64.175781 52.847656 65.304688 52.679688 66.441406 52.570312 C 67.582031 52.457031 68.722656 52.398438 69.867188 52.398438 C 71.011719 52.398438 72.152344 52.457031 73.289062 52.570312 C 74.429688 52.679688 75.558594 52.847656 76.683594 53.070312 C 77.804688 53.292969 78.914062 53.574219 80.007812 53.90625 C 81.101562 54.238281 82.179688 54.621094 83.234375 55.058594 C 84.292969 55.496094 85.324219 55.984375 86.335938 56.523438 C 87.34375 57.0625 88.324219 57.652344 89.273438 58.289062 C 90.226562 58.921875 91.144531 59.605469 92.027344 60.328125 C 92.914062 61.054688 93.757812 61.824219 94.570312 62.632812 C 95.378906 63.441406 96.144531 64.289062 96.871094 65.171875 C 97.597656 66.054688 98.277344 66.972656 98.914062 67.925781 C 99.546875 68.878906 100.136719 69.855469 100.675781 70.867188 C 101.214844 71.875 101.703125 72.90625 102.140625 73.964844 C 102.578125 75.023438 102.964844 76.097656 103.296875 77.191406 C 103.628906 78.289062 103.90625 79.394531 104.128906 80.519531 C 104.351562 81.640625 104.519531 82.769531 104.632812 83.910156 C 104.746094 85.046875 104.800781 86.191406 104.800781 87.332031 Z M 104.800781 87.332031 " fill-opacity="1" fill-rule="nonzero"/><g clip-path="url(#8c4ce75144)"><path fill="#00a0c8" d="M 113.535156 235.800781 L 34.933594 235.800781 C 30.109375 235.800781 26.199219 231.894531 26.199219 227.066406 L 26.199219 148.46875 C 26.199219 143.640625 30.109375 139.734375 34.933594 139.734375 L 113.535156 139.734375 C 118.359375 139.734375 122.265625 143.640625 122.265625 148.46875 L 122.265625 227.066406 C 122.265625 231.894531 118.359375 235.800781 113.535156 235.800781 Z M 113.535156 235.800781 " fill-opacity="1" fill-rule="nonzero"/></g><g clip-path="url(#f638b93884)"><path fill="#fab400" d="M 122.265625 165.933594 L 26.199219 165.933594 L 26.199219 148.46875 C 26.199219 143.640625 30.109375 139.734375 34.933594 139.734375 L 113.535156 139.734375 C 118.359375 139.734375 122.265625 143.640625 122.265625 148.46875 Z M 122.265625 165.933594 " fill-opacity="1" fill-rule="nonzero"/></g><path fill="#0a5078" d="M 52.398438 152.832031 C 52.398438 153.121094 52.371094 153.40625 52.316406 153.6875 C 52.261719 153.96875 52.175781 154.238281 52.066406 154.503906 C 51.957031 154.769531 51.824219 155.019531 51.664062 155.261719 C 51.503906 155.5 51.324219 155.71875 51.121094 155.921875 C 50.917969 156.125 50.699219 156.304688 50.460938 156.464844 C 50.222656 156.625 49.96875 156.757812 49.703125 156.867188 C 49.441406 156.976562 49.167969 157.0625 48.886719 157.117188 C 48.605469 157.171875 48.320312 157.199219 48.035156 157.199219 C 47.746094 157.199219 47.460938 157.171875 47.179688 157.117188 C 46.902344 157.0625 46.628906 156.976562 46.363281 156.867188 C 46.097656 156.757812 45.847656 156.625 45.609375 156.464844 C 45.367188 156.304688 45.148438 156.125 44.945312 155.921875 C 44.742188 155.71875 44.5625 155.5 44.402344 155.261719 C 44.242188 155.019531 44.109375 154.769531 44 154.503906 C 43.890625 154.238281 43.808594 153.96875 43.75 153.6875 C 43.695312 153.40625 43.667969 153.121094 43.667969 152.832031 C 43.667969 152.546875 43.695312 152.261719 43.75 151.980469 C 43.808594 151.699219 43.890625 151.425781 44 151.164062 C 44.109375 150.898438 44.242188 150.644531 44.402344 150.40625 C 44.5625 150.167969 44.742188 149.949219 44.945312 149.746094 C 45.148438 149.542969 45.367188 149.363281 45.609375 149.203125 C 45.847656 149.042969 46.097656 148.910156 46.363281 148.800781 C 46.628906 148.691406 46.902344 148.605469 47.179688 148.550781 C 47.460938 148.496094 47.746094 148.46875 48.035156 148.46875 C 48.320312 148.46875 48.605469 148.496094 48.886719 148.550781 C 49.167969 148.605469 49.441406 148.691406 49.703125 148.800781 C 49.96875 148.910156 50.222656 149.042969 50.460938 149.203125 C 50.699219 149.363281 50.917969 149.542969 51.121094 149.746094 C 51.324219 149.949219 51.503906 150.167969 51.664062 150.40625 C 51.824219 150.644531 51.957031 150.898438 52.066406 151.164062 C 52.175781 151.425781 52.261719 151.699219 52.316406 151.980469 C 52.371094 152.261719 52.398438 152.546875 52.398438 152.832031 Z M 52.398438 152.832031 " fill-opacity="1" fill-rule="nonzero"/><path fill="#0a5078" d="M 104.800781 152.832031 C 104.800781 153.121094 104.773438 153.40625 104.714844 153.6875 C 104.660156 153.96875 104.578125 154.238281 104.46875 154.503906 C 104.359375 154.769531 104.222656 155.019531 104.0625 155.261719 C 103.90625 155.5 103.722656 155.71875 103.519531 155.921875 C 103.320312 156.125 103.097656 156.304688 102.859375 156.464844 C 102.621094 156.625 102.371094 156.757812 102.105469 156.867188 C 101.839844 156.976562 101.566406 157.0625 101.285156 157.117188 C 101.003906 157.171875 100.71875 157.199219 100.433594 157.199219 C 100.148438 157.199219 99.863281 157.171875 99.582031 157.117188 C 99.300781 157.0625 99.027344 156.976562 98.761719 156.867188 C 98.496094 156.757812 98.246094 156.625 98.007812 156.464844 C 97.769531 156.304688 97.546875 156.125 97.347656 155.921875 C 97.144531 155.71875 96.960938 155.5 96.804688 155.261719 C 96.644531 155.019531 96.507812 154.769531 96.398438 154.503906 C 96.289062 154.238281 96.207031 153.96875 96.152344 153.6875 C 96.09375 153.40625 96.066406 153.121094 96.066406 152.832031 C 96.066406 152.546875 96.09375 152.261719 96.152344 151.980469 C 96.207031 151.699219 96.289062 151.425781 96.398438 151.164062 C 96.507812 150.898438 96.644531 150.644531 96.804688 150.40625 C 96.960938 150.167969 97.144531 149.949219 97.347656 149.746094 C 97.546875 149.542969 97.769531 149.363281 98.007812 149.203125 C 98.246094 149.042969 98.496094 148.910156 98.761719 148.800781 C 99.027344 148.691406 99.300781 148.605469 99.582031 148.550781 C 99.863281 148.496094 100.148438 148.46875 100.433594 148.46875 C 100.71875 148.46875 101.003906 148.496094 101.285156 148.550781 C 101.566406 148.605469 101.839844 148.691406 102.105469 148.800781 C 102.371094 148.910156 102.621094 149.042969 102.859375 149.203125 C 103.097656 149.363281 103.320312 149.542969 103.519531 149.746094 C 103.722656 149.949219 103.90625 150.167969 104.0625 150.40625 C 104.222656 150.644531 104.359375 150.898438 104.46875 151.164062 C 104.578125 151.425781 104.660156 151.699219 104.714844 151.980469 C 104.773438 152.261719 104.800781 152.546875 104.800781 152.832031 Z M 104.800781 152.832031 " fill-opacity="1" fill-rule="nonzero"/><path fill="#0082aa" d="M 52.398438 196.5 L 43.667969 196.5 C 41.257812 196.5 39.300781 194.542969 39.300781 192.132812 L 39.300781 183.402344 C 39.300781 180.992188 41.257812 179.035156 43.667969 179.035156 L 52.398438 179.035156 C 54.8125 179.035156 56.765625 180.992188 56.765625 183.402344 L 56.765625 192.132812 C 56.765625 194.542969 54.8125 196.5 52.398438 196.5 Z M 52.398438 196.5 " fill-opacity="1" fill-rule="nonzero"/><path fill="#0082aa" d="M 78.601562 196.5 L 69.867188 196.5 C 67.457031 196.5 65.5 194.542969 65.5 192.132812 L 65.5 183.402344 C 65.5 180.992188 67.457031 179.035156 69.867188 179.035156 L 78.601562 179.035156 C 81.011719 179.035156 82.96875 180.992188 82.96875 183.402344 L 82.96875 192.132812 C 82.96875 194.542969 81.011719 196.5 78.601562 196.5 Z M 78.601562 196.5 " fill-opacity="1" fill-rule="nonzero"/><path fill="#0082aa" d="M 104.800781 196.5 L 96.066406 196.5 C 93.65625 196.5 91.699219 194.542969 91.699219 192.132812 L 91.699219 183.402344 C 91.699219 180.992188 93.65625 179.035156 96.066406 179.035156 L 104.800781 179.035156 C 107.210938 179.035156 109.167969 180.992188 109.167969 183.402344 L 109.167969 192.132812 C 109.167969 194.542969 107.210938 196.5 104.800781 196.5 Z M 104.800781 196.5 " fill-opacity="1" fill-rule="nonzero"/><path fill="#0082aa" d="M 52.398438 222.699219 L 43.667969 222.699219 C 41.257812 222.699219 39.300781 220.746094 39.300781 218.335938 L 39.300781 209.601562 C 39.300781 207.191406 41.257812 205.234375 43.667969 205.234375 L 52.398438 205.234375 C 54.8125 205.234375 56.765625 207.191406 56.765625 209.601562 L 56.765625 218.335938 C 56.765625 220.746094 54.8125 222.699219 52.398438 222.699219 Z M 52.398438 222.699219 " fill-opacity="1" fill-rule="nonzero"/><path fill="#0082aa" d="M 78.601562 222.699219 L 69.867188 222.699219 C 67.457031 222.699219 65.5 220.746094 65.5 218.335938 L 65.5 209.601562 C 65.5 207.191406 67.457031 205.234375 69.867188 205.234375 L 78.601562 205.234375 C 81.011719 205.234375 82.96875 207.191406 82.96875 209.601562 L 82.96875 218.335938 C 82.96875 220.746094 81.011719 222.699219 78.601562 222.699219 Z M 78.601562 222.699219 " fill-opacity="1" fill-rule="nonzero"/><path fill="#0082aa" d="M 104.800781 222.699219 L 96.066406 222.699219 C 93.65625 222.699219 91.699219 220.746094 91.699219 218.335938 L 91.699219 209.601562 C 91.699219 207.191406 93.65625 205.234375 96.066406 205.234375 L 104.800781 205.234375 C 107.210938 205.234375 109.167969 207.191406 109.167969 209.601562 L 109.167969 218.335938 C 109.167969 220.746094 107.210938 222.699219 104.800781 222.699219 Z M 104.800781 222.699219 " fill-opacity="1" fill-rule="nonzero"/><g clip-path="url(#8c5bad0d57)"><path fill="#0082aa" d="M 26.199219 165.933594 L 122.265625 165.933594 L 122.265625 170.300781 L 26.199219 170.300781 Z M 26.199219 165.933594 " fill-opacity="1" fill-rule="nonzero"/></g><path fill="#0a5078" d="M 61.132812 100.433594 C 60.015625 100.433594 58.898438 100.003906 58.046875 99.152344 C 56.339844 97.445312 56.339844 94.6875 58.046875 92.980469 L 65.5 85.527344 L 65.5 61.132812 C 65.5 58.722656 67.453125 56.765625 69.867188 56.765625 C 72.28125 56.765625 74.234375 58.722656 74.234375 61.132812 L 74.234375 87.332031 C 74.234375 88.492188 73.773438 89.605469 72.953125 90.421875 L 64.222656 99.152344 C 63.371094 100.003906 62.25 100.433594 61.132812 100.433594 Z M 61.132812 100.433594 " fill-opacity="1" fill-rule="nonzero"/><path fill="#d2d2d2" d="M 48.035156 91.699219 L 43.667969 91.699219 C 41.257812 91.699219 39.300781 89.742188 39.300781 87.332031 C 39.300781 84.921875 41.257812 82.96875 43.667969 82.96875 L 48.035156 82.96875 C 50.445312 82.96875 52.398438 84.921875 52.398438 87.332031 C 52.398438 89.742188 50.445312 91.699219 48.035156 91.699219 Z M 48.035156 91.699219 " fill-opacity="1" fill-rule="nonzero"/><path fill="#d2d2d2" d="M 74.234375 109.167969 L 74.234375 113.535156 C 74.234375 115.945312 72.277344 117.902344 69.867188 117.902344 C 67.457031 117.902344 65.5 115.945312 65.5 113.535156 L 65.5 109.167969 C 65.5 106.757812 67.457031 104.800781 69.867188 104.800781 C 72.277344 104.800781 74.234375 106.757812 74.234375 109.167969 Z M 74.234375 109.167969 " fill-opacity="1" fill-rule="nonzero"/><path fill="#d2d2d2" d="M 96.066406 91.699219 L 91.699219 91.699219 C 89.289062 91.699219 87.332031 89.742188 87.332031 87.332031 C 87.332031 84.921875 89.289062 82.96875 91.699219 82.96875 L 96.066406 82.96875 C 98.476562 82.96875 100.433594 84.921875 100.433594 87.332031 C 100.433594 89.742188 98.476562 91.699219 96.066406 91.699219 Z M 96.066406 91.699219 " fill-opacity="1" fill-rule="nonzero"/><g fill="#000000" fill-opacity="1"><g transform="translate(164.384156, 170.891523)"><g><path d="M 0.0625 -0.0625 C 0.0625 -0.09375 0.0664062 -0.113281 0.078125 -0.125 C 0.0859375 -0.144531 0.109375 -0.15625 0.140625 -0.15625 C 0.171875 -0.15625 0.191406 -0.144531 0.203125 -0.125 C 0.222656 -0.113281 0.234375 -0.09375 0.234375 -0.0625 C 0.234375 -0.0390625 0.222656 -0.0195312 0.203125 0 C 0.191406 0.0078125 0.171875 0.015625 0.140625 0.015625 C 0.117188 0.015625 0.0976562 0.0078125 0.078125 0 C 0.0664062 -0.0195312 0.0625 -0.0390625 0.0625 -0.0625 Z M 0.0625 -0.0625 "/></g></g></g></svg>