<svg xmlns="http://www.w3.org/2000/svg" xmlns:xlink="http://www.w3.org/1999/xlink" width="350" zoomAndPan="magnify" viewBox="0 0 262.5 262.500001" height="350" preserveAspectRatio="xMidYMid meet" version="1.0"><defs><g/><clipPath id="46d53ab8bb"><path d="M 26.199219 48 L 143 48 L 143 91 L 26.199219 91 Z M 26.199219 48 " clip-rule="nonzero"/></clipPath><clipPath id="47d2b14e25"><path d="M 124 158 L 232 158 L 232 214.128906 L 124 214.128906 Z M 124 158 " clip-rule="nonzero"/></clipPath><clipPath id="1693b67578"><path d="M 162 99 L 235.800781 99 L 235.800781 174 L 162 174 Z M 162 99 " clip-rule="nonzero"/></clipPath></defs><path fill="#2a92fa" d="M 118.566406 114.777344 L 149.734375 114.777344 L 183.699219 80.792969 L 208.527344 80.792969 L 208.527344 88.75 C 208.527344 89.261719 208.796875 89.695312 209.242188 89.933594 C 209.695312 90.164062 210.210938 90.128906 210.625 89.835938 L 230.707031 75.542969 C 231.066406 75.289062 231.265625 74.90625 231.265625 74.46875 C 231.265625 74.019531 231.066406 73.640625 230.707031 73.382812 L 210.625 59.097656 C 210.210938 58.804688 209.695312 58.761719 209.242188 59 C 208.796875 59.230469 208.527344 59.671875 208.527344 60.175781 L 208.527344 68.132812 L 178.449219 68.132812 L 144.484375 102.113281 L 118.566406 102.113281 Z M 118.566406 114.777344 " fill-opacity="1" fill-rule="evenodd"/><path fill="#4eb1fc" d="M 118.566406 114.777344 L 144.214844 114.777344 L 178.179688 80.792969 L 208.527344 80.792969 L 208.527344 87.398438 L 225.1875 75.542969 C 225.550781 75.289062 225.746094 74.90625 225.746094 74.46875 C 225.746094 74.019531 225.550781 73.640625 225.1875 73.382812 L 208.527344 61.53125 L 208.527344 68.132812 L 178.449219 68.132812 L 144.484375 102.113281 L 118.566406 102.113281 Z M 118.566406 114.777344 " fill-opacity="1" fill-rule="evenodd"/><path fill="#fcdb35" d="M 64.667969 160.507812 C 64.667969 164.371094 67.832031 167.535156 71.695312 167.535156 L 97.570312 167.535156 C 101.4375 167.535156 104.597656 164.371094 104.597656 160.507812 L 104.597656 159.304688 C 104.597656 139.953125 124.5625 134.519531 124.5625 108.519531 C 124.5625 84.65625 104.597656 72.730469 84.632812 72.730469 C 64.667969 72.730469 44.703125 84.65625 44.703125 108.519531 C 44.703125 134.519531 64.667969 139.953125 64.667969 159.304688 Z M 64.667969 160.507812 " fill-opacity="1" fill-rule="evenodd"/><path fill="#ffeb87" d="M 64.667969 160.507812 C 64.667969 164.371094 67.832031 167.535156 71.695312 167.535156 L 89.636719 167.535156 C 93.503906 167.535156 96.664062 164.371094 96.664062 160.507812 L 96.664062 157.492188 C 96.664062 138.140625 116.628906 132.707031 116.628906 106.707031 C 116.628906 88.890625 105.496094 77.726562 91.546875 73.210938 C 89.261719 72.898438 86.949219 72.730469 84.632812 72.730469 C 64.667969 72.730469 44.703125 84.664062 44.703125 108.519531 C 44.703125 134.519531 64.667969 139.960938 64.667969 159.304688 Z M 64.667969 160.507812 " fill-opacity="1" fill-rule="evenodd"/><g clip-path="url(#46d53ab8bb)"><path fill="#fcdb35" d="M 81.691406 50.953125 C 81.691406 49.328125 83.011719 48.007812 84.632812 48.007812 C 86.261719 48.007812 87.574219 49.328125 87.574219 50.953125 L 87.574219 60.6875 C 87.574219 62.316406 86.261719 63.632812 84.632812 63.632812 C 83.011719 63.632812 81.691406 62.316406 81.691406 60.6875 Z M 138.089844 80.136719 C 139.488281 79.324219 141.289062 79.800781 142.09375 81.207031 C 142.910156 82.609375 142.429688 84.40625 141.03125 85.214844 L 132.597656 90.085938 C 131.195312 90.898438 129.402344 90.417969 128.585938 89.019531 C 127.773438 87.613281 128.25 85.820312 129.65625 85.003906 Z M 113.804688 57.996094 C 114.613281 56.589844 116.40625 56.101562 117.804688 56.910156 C 119.207031 57.71875 119.6875 59.511719 118.886719 60.914062 L 114.019531 69.347656 C 113.210938 70.75 111.417969 71.234375 110.019531 70.425781 C 108.617188 69.625 108.128906 67.832031 108.9375 66.425781 Z M 28.242188 85.214844 C 26.839844 84.40625 26.363281 82.609375 27.167969 81.207031 C 27.984375 79.800781 29.785156 79.324219 31.183594 80.136719 L 39.613281 85.003906 C 41.011719 85.820312 41.492188 87.613281 40.683594 89.019531 C 39.871094 90.417969 38.070312 90.898438 36.671875 90.085938 Z M 50.386719 60.914062 C 49.578125 59.511719 50.0625 57.71875 51.46875 56.910156 C 52.867188 56.101562 54.660156 56.589844 55.46875 57.996094 L 60.335938 66.425781 C 61.140625 67.832031 60.65625 69.617188 59.25 70.425781 C 57.851562 71.234375 56.058594 70.75 55.25 69.347656 Z M 50.386719 60.914062 " fill-opacity="1" fill-rule="evenodd"/></g><path fill="#495586" d="M 75.128906 188.0625 L 94.136719 188.0625 L 94.136719 192.222656 C 94.136719 195.375 91.5625 197.949219 88.410156 197.949219 L 80.855469 197.949219 C 77.710938 197.949219 75.128906 195.375 75.128906 192.222656 Z M 75.128906 188.0625 " fill-opacity="1" fill-rule="evenodd"/><path fill="#5d689e" d="M 75.128906 188.0625 L 88.699219 188.0625 L 88.699219 192.222656 C 88.699219 195.375 86.125 197.949219 82.976562 197.949219 L 80.855469 197.949219 C 77.710938 197.949219 75.128906 195.375 75.128906 192.222656 Z M 75.128906 188.0625 " fill-opacity="1" fill-rule="evenodd"/><path fill="#5d689e" d="M 69.894531 189.269531 C 68.265625 189.269531 66.953125 187.949219 66.953125 186.328125 C 66.953125 184.699219 68.265625 183.382812 69.894531 183.382812 L 99.375 183.382812 C 101.003906 183.382812 102.316406 184.699219 102.316406 186.328125 C 102.316406 187.949219 101.003906 189.269531 99.375 189.269531 Z M 67.964844 178.402344 C 66.335938 178.402344 65.023438 177.082031 65.023438 175.460938 C 65.023438 173.832031 66.335938 172.515625 67.964844 172.515625 L 101.304688 172.515625 C 102.933594 172.515625 104.25 173.832031 104.25 175.460938 C 104.25 177.082031 102.933594 178.402344 101.304688 178.402344 L 67.957031 178.402344 Z M 67.964844 178.402344 " fill-opacity="1" fill-rule="evenodd"/><path fill="#7986bf" d="M 69.894531 189.269531 C 68.265625 189.269531 66.953125 187.949219 66.953125 186.328125 C 66.953125 184.699219 68.265625 183.382812 69.894531 183.382812 L 93.9375 183.382812 C 95.566406 183.382812 96.878906 184.699219 96.878906 186.328125 C 96.878906 187.949219 95.566406 189.269531 93.9375 189.269531 Z M 95.867188 172.515625 C 97.496094 172.515625 98.8125 173.832031 98.8125 175.460938 C 98.8125 177.082031 97.496094 178.402344 95.867188 178.402344 L 67.957031 178.402344 C 66.335938 178.402344 65.015625 177.082031 65.015625 175.460938 C 65.015625 173.832031 66.335938 172.515625 67.957031 172.515625 Z M 95.867188 172.515625 " fill-opacity="1" fill-rule="evenodd"/><path fill="#ff8748" d="M 88.066406 167.535156 L 88.066406 137.167969 C 86.925781 137.3125 85.78125 137.390625 84.632812 137.390625 C 83.488281 137.390625 82.339844 137.3125 81.203125 137.167969 L 81.203125 167.535156 L 75.347656 167.535156 L 75.347656 135.722656 C 74.753906 135.5 74.15625 135.25 73.585938 134.980469 C 68.917969 132.804688 64.9375 129.164062 62.558594 124.058594 C 59.855469 118.257812 59.902344 113.546875 61.382812 110.65625 C 62.554688 108.371094 64.523438 107.082031 66.886719 106.957031 C 68.945312 106.851562 71.195312 107.699219 73.277344 109.636719 C 76.785156 112.902344 80.167969 119.808594 81.015625 131.1875 C 82.203125 131.398438 83.417969 131.496094 84.632812 131.496094 C 85.855469 131.496094 87.0625 131.398438 88.257812 131.1875 C 89.105469 119.808594 92.488281 112.902344 95.992188 109.636719 C 98.074219 107.699219 100.328125 106.851562 102.382812 106.957031 C 104.746094 107.082031 106.71875 108.371094 107.886719 110.65625 C 109.363281 113.546875 109.417969 118.257812 106.710938 124.058594 C 104.332031 129.164062 100.355469 132.804688 95.683594 134.980469 C 95.113281 135.25 94.515625 135.5 93.925781 135.722656 L 93.925781 167.535156 Z M 99.992188 113.933594 C 97.589844 116.175781 95.265625 120.980469 94.351562 129.058594 C 97.320312 127.410156 99.824219 124.914062 101.378906 121.578125 C 103.238281 117.59375 103.414062 114.78125 102.671875 113.332031 C 102.507812 113.007812 102.296875 112.832031 102.082031 112.824219 C 101.5625 112.796875 100.839844 113.152344 99.992188 113.933594 Z M 67.894531 121.578125 C 69.449219 124.914062 71.953125 127.410156 74.917969 129.058594 C 74.007812 120.980469 71.683594 116.175781 69.277344 113.933594 C 68.429688 113.148438 67.707031 112.796875 67.183594 112.824219 C 66.972656 112.832031 66.761719 113.007812 66.597656 113.324219 C 65.855469 114.78125 66.035156 117.59375 67.894531 121.578125 Z M 67.894531 121.578125 " fill-opacity="1" fill-rule="evenodd"/><g clip-path="url(#47d2b14e25)"><path fill="#2a92fa" d="M 124.652344 158.132812 L 149.734375 158.132812 L 183.699219 192.117188 L 208.527344 192.117188 L 208.527344 184.160156 C 208.527344 183.652344 208.796875 183.21875 209.242188 182.984375 C 209.695312 182.753906 210.210938 182.785156 210.625 183.082031 L 230.707031 197.371094 C 231.066406 197.628906 231.265625 198.011719 231.265625 198.449219 C 231.265625 198.890625 231.066406 199.269531 230.707031 199.527344 L 210.625 213.816406 C 210.210938 214.113281 209.695312 214.148438 209.242188 213.917969 C 208.796875 213.679688 208.527344 213.246094 208.527344 212.734375 L 208.527344 204.777344 L 178.449219 204.777344 L 144.484375 170.796875 L 124.652344 170.796875 Z M 124.652344 158.132812 " fill-opacity="1" fill-rule="evenodd"/></g><path fill="#4eb1fc" d="M 124.652344 158.132812 L 144.214844 158.132812 L 178.179688 192.117188 L 208.527344 192.117188 L 208.527344 185.519531 L 225.1875 197.371094 C 225.550781 197.628906 225.746094 198.011719 225.746094 198.449219 C 225.746094 198.890625 225.550781 199.269531 225.1875 199.527344 L 208.527344 211.378906 L 208.527344 204.785156 L 178.449219 204.785156 L 144.484375 170.800781 L 124.652344 170.800781 Z M 124.652344 158.132812 " fill-opacity="1" fill-rule="evenodd"/><g clip-path="url(#1693b67578)"><path fill="#f9ac00" d="M 215.148438 109.78125 L 220.625 106.109375 L 229.285156 114.769531 L 225.617188 120.25 L 229.261719 129.054688 L 235.730469 130.328125 L 235.730469 142.582031 L 229.261719 143.855469 L 225.617188 152.660156 L 229.285156 158.140625 L 220.625 166.808594 L 215.148438 163.132812 L 206.347656 166.78125 L 205.074219 173.253906 L 192.828125 173.253906 L 191.550781 166.78125 L 182.753906 163.132812 L 177.273438 166.808594 L 168.621094 158.140625 L 172.289062 152.660156 L 168.644531 143.855469 L 162.175781 142.582031 L 162.175781 130.328125 L 168.644531 129.054688 L 172.289062 120.25 L 168.621094 114.769531 L 177.273438 106.109375 L 182.753906 109.78125 L 191.550781 106.136719 L 192.828125 99.664062 L 205.074219 99.664062 L 206.347656 106.136719 Z M 215.148438 109.78125 " fill-opacity="1" fill-rule="evenodd"/></g><path fill="#fcdb35" d="M 215.148438 109.78125 L 218.261719 107.691406 L 225.332031 114.769531 L 221.664062 120.25 L 225.308594 129.054688 L 231.777344 130.328125 L 231.777344 142.582031 L 225.308594 143.855469 L 221.664062 152.667969 L 225.332031 158.140625 L 218.261719 165.21875 L 215.148438 163.132812 L 211.949219 160.984375 L 202.796875 164.777344 L 201.121094 173.253906 L 192.828125 173.253906 L 191.550781 166.78125 L 182.753906 163.132812 L 179.476562 161.773438 L 175.148438 164.679688 L 168.621094 158.140625 L 172.289062 152.660156 L 168.644531 143.855469 L 162.175781 142.582031 L 162.175781 130.328125 L 168.644531 129.054688 L 172.289062 120.25 L 168.621094 114.769531 L 175.148438 108.238281 L 179.476562 111.144531 L 182.753906 109.78125 L 191.550781 106.136719 L 192.828125 99.664062 L 201.121094 99.664062 L 202.796875 108.132812 L 211.949219 111.929688 Z M 215.148438 109.78125 " fill-opacity="1" fill-rule="evenodd"/><path fill="#f9ac00" d="M 208.871094 123.121094 C 216.230469 130.492188 216.230469 142.4375 208.871094 149.804688 C 201.5 157.175781 189.5625 157.175781 182.199219 149.804688 C 174.839844 142.4375 174.839844 130.492188 182.199219 123.121094 C 189.5625 115.753906 201.5 115.753906 208.871094 123.121094 Z M 208.871094 123.121094 " fill-opacity="1" fill-rule="nonzero"/><path fill="#ffffff" d="M 203.308594 118.167969 C 213.441406 120.566406 219.710938 130.730469 217.316406 140.867188 C 214.925781 151.003906 204.765625 157.285156 194.632812 154.886719 C 184.492188 152.488281 178.222656 142.324219 180.617188 132.1875 C 183.015625 122.050781 193.167969 115.773438 203.308594 118.167969 Z M 203.308594 118.167969 " fill-opacity="1" fill-rule="nonzero"/><g fill="#000000" fill-opacity="1"><g transform="translate(178.042973, 179.583491)"><g><path d="M 0.0625 -0.0625 C 0.0625 -0.09375 0.0664062 -0.113281 0.078125 -0.125 C 0.0859375 -0.144531 0.109375 -0.15625 0.140625 -0.15625 C 0.171875 -0.15625 0.191406 -0.144531 0.203125 -0.125 C 0.222656 -0.113281 0.234375 -0.09375 0.234375 -0.0625 C 0.234375 -0.0390625 0.222656 -0.0195312 0.203125 0 C 0.191406 0.0078125 0.171875 0.015625 0.140625 0.015625 C 0.117188 0.015625 0.0976562 0.0078125 0.078125 0 C 0.0664062 -0.0195312 0.0625 -0.0390625 0.0625 -0.0625 Z M 0.0625 -0.0625 "/></g></g></g></svg>