<svg xmlns="http://www.w3.org/2000/svg" xmlns:xlink="http://www.w3.org/1999/xlink" width="350" zoomAndPan="magnify" viewBox="0 0 262.5 262.500001" height="350" preserveAspectRatio="xMidYMid meet" version="1.0"><defs><g/><clipPath id="67f558e4c1"><path d="M 26.199219 123 L 114 123 L 114 209 L 26.199219 209 Z M 26.199219 123 " clip-rule="nonzero"/></clipPath><clipPath id="baa651f2b4"><path d="M 26.199219 123 L 114 123 L 114 195 L 26.199219 195 Z M 26.199219 123 " clip-rule="nonzero"/></clipPath><clipPath id="fe2c27b9a0"><path d="M 37 208 L 90 208 L 90 223.144531 L 37 223.144531 Z M 37 208 " clip-rule="nonzero"/></clipPath><clipPath id="6604f7ba8b"><path d="M 37 215 L 90 215 L 90 223.144531 L 37 223.144531 Z M 37 215 " clip-rule="nonzero"/></clipPath><clipPath id="6ab957211b"><path d="M 154 207 L 208 207 L 208 223.144531 L 154 223.144531 Z M 154 207 " clip-rule="nonzero"/></clipPath><clipPath id="1ea2887466"><path d="M 154 215 L 208 215 L 208 223.144531 L 154 223.144531 Z M 154 215 " clip-rule="nonzero"/></clipPath><clipPath id="6e3f7a76de"><path d="M 128 39 L 235.800781 39 L 235.800781 96 L 128 96 Z M 128 39 " clip-rule="nonzero"/></clipPath></defs><g clip-path="url(#67f558e4c1)"><path fill="#f58667" d="M 64.734375 123.832031 C 84.414062 123.832031 100.613281 138.582031 102.992188 157.632812 C 103.175781 159.191406 103.3125 160.792969 103.3125 162.394531 C 103.3125 163.679688 103.265625 164.914062 103.128906 166.152344 L 113.425781 181.722656 L 102.992188 184.515625 L 102.992188 200.957031 L 78.144531 200.957031 L 78.144531 208.148438 L 46.109375 208.148438 L 46.109375 196.148438 C 34.253906 189.554688 26.246094 176.914062 26.246094 162.394531 C 26.199219 141.097656 43.453125 123.832031 64.734375 123.832031 Z M 64.734375 123.832031 " fill-opacity="1" fill-rule="evenodd"/></g><g clip-path="url(#baa651f2b4)"><path fill="#f8a57d" d="M 64.734375 123.832031 C 84.414062 123.832031 100.613281 138.582031 102.992188 157.632812 C 103.175781 159.191406 103.3125 160.792969 103.3125 162.394531 C 103.3125 163.679688 103.265625 164.914062 103.128906 166.152344 L 113.425781 181.722656 L 102.992188 184.515625 L 102.992188 191.476562 C 90.222656 195.875 75.03125 195.601562 60.570312 189.601562 C 43.820312 182.640625 31.828125 169.539062 26.976562 154.976562 C 30.410156 137.207031 46.015625 123.832031 64.734375 123.832031 Z M 64.734375 123.832031 " fill-opacity="1" fill-rule="evenodd"/></g><g clip-path="url(#fe2c27b9a0)"><path fill="#34c6f4" d="M 43.132812 208.148438 L 81.667969 208.148438 C 85.785156 208.148438 89.125 211.492188 89.125 215.613281 C 89.125 219.738281 85.738281 223.078125 81.667969 223.078125 L 45.285156 223.078125 C 41.164062 223.078125 37.824219 219.738281 37.824219 215.613281 L 37.824219 213.460938 C 37.777344 210.53125 40.203125 208.148438 43.132812 208.148438 Z M 43.132812 208.148438 " fill-opacity="1" fill-rule="evenodd"/></g><g clip-path="url(#6604f7ba8b)"><path fill="#243e90" d="M 89.125 215.613281 C 89.125 219.78125 85.738281 223.125 81.667969 223.125 L 45.285156 223.125 C 41.164062 223.125 37.824219 219.78125 37.824219 215.660156 L 37.824219 215.613281 Z M 89.125 215.613281 " fill-opacity="1" fill-rule="evenodd"/></g><path fill="#ffe4c9" d="M 56.265625 136.246094 C 49.953125 136.246094 44.828125 141.375 44.828125 147.695312 C 44.828125 154.015625 49.953125 159.144531 56.265625 159.144531 C 62.582031 159.144531 67.707031 154.015625 67.707031 147.695312 C 67.753906 141.375 62.628906 136.246094 56.265625 136.246094 Z M 56.265625 136.246094 " fill-opacity="1" fill-rule="evenodd"/><path fill="#ffe4c9" d="M 89.765625 169.679688 C 87.890625 169.679688 86.425781 171.1875 86.425781 173.019531 C 86.425781 174.898438 87.9375 176.363281 89.765625 176.363281 C 91.597656 176.363281 93.109375 174.851562 93.109375 173.019531 C 93.109375 171.1875 91.597656 169.679688 89.765625 169.679688 Z M 89.765625 169.679688 " fill-opacity="1" fill-rule="evenodd"/><path fill="#ffffff" d="M 90.957031 140.046875 C 83.542969 140.046875 80.933594 137.023438 80.933594 123.144531 C 80.933594 135.96875 79.605469 140.046875 70.910156 140.046875 C 79.5625 140.046875 80.933594 144.488281 80.933594 154.199219 C 80.980469 145.585938 82.308594 140.046875 90.957031 140.046875 Z M 90.957031 140.046875 " fill-opacity="1" fill-rule="evenodd"/><path fill="#f58667" d="M 145.738281 141.007812 C 143.128906 145.496094 141.34375 150.578125 140.703125 155.984375 C 140.519531 157.585938 140.382812 159.234375 140.382812 160.882812 C 140.382812 162.167969 140.429688 163.449219 140.566406 164.730469 L 129.992188 180.667969 L 140.65625 183.554688 L 140.65625 200.453125 L 166.148438 200.453125 L 166.148438 207.828125 L 199.007812 207.828125 L 199.007812 195.507812 C 211.132812 188.777344 219.371094 175.816406 219.371094 160.929688 C 219.371094 154.472656 217.816406 148.335938 215.070312 142.929688 C 206.28125 147.144531 194.796875 149.664062 182.164062 149.664062 C 167.796875 149.664062 154.796875 146.320312 145.738281 141.007812 Z M 145.738281 141.007812 " fill-opacity="1" fill-rule="evenodd"/><path fill="#f8a57d" d="M 145.738281 141.007812 C 143.128906 145.496094 141.34375 150.578125 140.703125 155.984375 C 140.519531 157.585938 140.382812 159.234375 140.382812 160.882812 C 140.382812 162.167969 140.429688 163.449219 140.566406 164.730469 L 129.992188 180.667969 L 140.65625 183.554688 L 140.65625 190.699219 C 153.746094 195.234375 169.351562 194.914062 184.179688 188.730469 C 201.339844 181.585938 213.652344 168.167969 218.640625 153.234375 C 217.90625 149.570312 216.71875 146.089844 215.070312 142.886719 C 206.28125 147.097656 194.796875 149.617188 182.164062 149.617188 C 167.796875 149.664062 154.796875 146.320312 145.738281 141.007812 Z M 145.738281 141.007812 " fill-opacity="1" fill-rule="evenodd"/><g clip-path="url(#6ab957211b)"><path fill="#34c6f4" d="M 202.074219 207.78125 L 162.578125 207.78125 C 158.367188 207.78125 154.933594 211.21875 154.933594 215.476562 C 154.933594 219.691406 158.367188 223.125 162.578125 223.125 L 199.875 223.125 C 204.085938 223.125 207.5625 219.691406 207.5625 215.476562 L 207.5625 213.277344 C 207.519531 210.257812 205.046875 207.78125 202.074219 207.78125 Z M 202.074219 207.78125 " fill-opacity="1" fill-rule="evenodd"/></g><g clip-path="url(#1ea2887466)"><path fill="#243e90" d="M 154.890625 215.386719 L 154.890625 215.429688 C 154.890625 219.644531 158.320312 223.078125 162.53125 223.078125 L 199.828125 223.078125 C 204.039062 223.078125 207.519531 219.644531 207.519531 215.429688 L 207.519531 215.386719 Z M 154.890625 215.386719 " fill-opacity="1" fill-rule="evenodd"/></g><path fill="#ffe4c9" d="M 165.964844 171.738281 C 171.226562 171.738281 175.4375 176 175.4375 181.21875 C 175.4375 186.441406 171.226562 190.699219 165.964844 190.699219 C 160.746094 190.699219 156.492188 186.441406 156.492188 181.21875 C 156.492188 176 160.703125 171.738281 165.964844 171.738281 Z M 165.964844 171.738281 " fill-opacity="1" fill-rule="evenodd"/><path fill="#ffe4c9" d="M 154.25 168.304688 C 156.171875 168.304688 157.679688 169.859375 157.679688 171.738281 C 157.679688 173.617188 156.171875 175.171875 154.25 175.171875 C 152.371094 175.171875 150.816406 173.617188 150.816406 171.738281 C 150.816406 169.859375 152.328125 168.304688 154.25 168.304688 Z M 154.25 168.304688 " fill-opacity="1" fill-rule="evenodd"/><g clip-path="url(#6e3f7a76de)"><path fill="#ffc60b" d="M 232.140625 88.292969 C 234.152344 88.292969 235.800781 89.941406 235.800781 91.957031 C 235.800781 93.972656 234.152344 95.621094 232.140625 95.621094 L 226.097656 95.621094 C 224.085938 95.621094 222.4375 93.972656 222.4375 91.957031 C 222.4375 89.941406 224.085938 88.292969 226.097656 88.292969 Z M 132.097656 95.621094 C 130.085938 95.621094 128.4375 93.972656 128.4375 91.957031 C 128.4375 89.941406 130.085938 88.292969 132.097656 88.292969 L 138.140625 88.292969 C 140.152344 88.292969 141.800781 89.941406 141.800781 91.957031 C 141.800781 93.972656 140.152344 95.621094 138.140625 95.621094 Z M 136.996094 70.066406 C 135.257812 69.058594 134.660156 66.8125 135.667969 65.074219 C 136.675781 63.332031 138.917969 62.738281 140.65625 63.746094 L 145.875 66.765625 C 147.613281 67.773438 148.207031 70.019531 147.199219 71.757812 C 146.195312 73.5 143.953125 74.09375 142.210938 73.085938 Z M 153.929688 50.417969 C 152.921875 48.675781 153.515625 46.433594 155.253906 45.425781 C 156.996094 44.417969 159.238281 45.011719 160.242188 46.753906 L 163.265625 51.972656 C 164.269531 53.714844 163.675781 55.957031 161.9375 56.964844 C 160.199219 57.972656 157.957031 57.378906 156.949219 55.636719 Z M 178.457031 42.675781 C 178.457031 40.660156 180.105469 39.011719 182.121094 39.011719 C 184.132812 39.011719 185.78125 40.660156 185.78125 42.675781 L 185.78125 47.898438 C 185.78125 49.914062 184.132812 51.5625 182.121094 51.5625 C 180.105469 51.5625 178.457031 49.914062 178.457031 47.898438 Z M 203.949219 46.753906 C 204.957031 45.011719 207.199219 44.417969 208.9375 45.425781 C 210.675781 46.433594 211.269531 48.675781 210.265625 50.417969 L 207.242188 55.636719 C 206.238281 57.378906 203.996094 57.972656 202.253906 56.964844 C 200.515625 55.957031 199.921875 53.714844 200.929688 51.972656 Z M 223.628906 63.746094 C 225.367188 62.738281 227.609375 63.332031 228.617188 65.074219 C 229.621094 66.8125 229.027344 69.058594 227.289062 70.066406 L 222.070312 73.085938 C 220.332031 74.09375 218.089844 73.5 217.082031 71.757812 C 216.078125 70.019531 216.671875 67.773438 218.410156 66.765625 Z M 223.628906 63.746094 " fill-opacity="1" fill-rule="nonzero"/></g><path fill="#ffc60b" d="M 182.121094 59.117188 C 199.648438 59.117188 213.878906 73.363281 213.878906 90.902344 C 213.878906 114.125 197.726562 109.542969 197.726562 134.503906 L 166.558594 134.503906 C 166.558594 109.359375 150.40625 114.078125 150.40625 90.902344 C 150.359375 73.316406 164.589844 59.117188 182.121094 59.117188 Z M 182.121094 59.117188 " fill-opacity="1" fill-rule="evenodd"/><path fill="#333333" d="M 171.824219 155.023438 C 177.542969 168.441406 186.648438 168.441406 192.371094 155.023438 Z M 171.824219 155.023438 " fill-opacity="1" fill-rule="evenodd"/><path fill="#333333" d="M 166.742188 129.601562 L 197.542969 129.601562 C 205.640625 129.601562 205.640625 143.894531 197.542969 143.894531 L 166.742188 143.894531 C 158.597656 143.894531 158.597656 129.601562 166.742188 129.601562 Z M 166.742188 129.601562 " fill-opacity="1" fill-rule="evenodd"/><path fill="#808080" d="M 197.175781 143.894531 C 197.128906 149.480469 195.117188 155.023438 191.089844 155.023438 L 173.105469 155.023438 C 169.121094 155.023438 167.0625 149.480469 167.015625 143.894531 Z M 197.175781 143.894531 " fill-opacity="1" fill-rule="evenodd"/><path fill="#f7ec13" d="M 194.429688 73.179688 C 199.050781 73.179688 202.851562 76.933594 202.851562 81.605469 C 202.851562 86.230469 199.097656 90.03125 194.429688 90.03125 C 189.761719 90.03125 186.007812 86.277344 186.007812 81.605469 C 186.007812 76.933594 189.761719 73.179688 194.429688 73.179688 Z M 194.429688 73.179688 " fill-opacity="1" fill-rule="evenodd"/><path fill="#f7ec13" d="M 180.195312 68.507812 C 182.484375 68.507812 184.40625 70.386719 184.40625 72.722656 C 184.40625 75.054688 182.53125 76.933594 180.195312 76.933594 C 177.910156 76.933594 175.988281 75.054688 175.988281 72.722656 C 175.988281 70.386719 177.863281 68.507812 180.195312 68.507812 Z M 180.195312 68.507812 " fill-opacity="1" fill-rule="evenodd"/><path fill="#ffffff" d="M 180.929688 120.765625 C 180.929688 122.78125 179.28125 124.429688 177.269531 124.429688 C 175.253906 124.429688 173.605469 122.78125 173.605469 120.765625 L 173.605469 90.492188 C 173.605469 89.390625 172.875 88.660156 171.914062 88.292969 C 171.410156 88.109375 170.816406 88.019531 170.21875 88.019531 C 169.625 88.019531 169.03125 88.109375 168.527344 88.292969 C 167.566406 88.613281 166.832031 89.390625 166.832031 90.492188 C 166.832031 90.996094 167.0625 91.453125 167.429688 91.863281 C 167.886719 92.367188 168.617188 92.78125 169.441406 92.917969 C 171.410156 93.285156 172.738281 95.207031 172.371094 97.175781 C 172.003906 99.148438 170.128906 100.476562 168.117188 100.109375 C 165.734375 99.652344 163.585938 98.503906 162.074219 96.855469 C 160.472656 95.164062 159.511719 92.917969 159.511719 90.492188 C 159.511719 85.726562 162.394531 82.703125 166.148438 81.421875 C 167.476562 80.964844 168.894531 80.734375 170.265625 80.734375 C 171.640625 80.734375 173.011719 80.964844 174.339844 81.421875 C 178.046875 82.703125 180.976562 85.726562 180.976562 90.492188 L 180.976562 120.765625 Z M 196.214844 100.109375 C 194.246094 100.476562 192.324219 99.191406 191.914062 97.222656 C 191.546875 95.253906 192.828125 93.332031 194.796875 92.964844 C 195.621094 92.78125 196.304688 92.414062 196.808594 91.910156 C 197.175781 91.5 197.359375 91.039062 197.359375 90.535156 C 197.359375 89.4375 196.625 88.703125 195.664062 88.339844 C 195.160156 88.15625 194.566406 88.0625 193.972656 88.0625 C 193.378906 88.0625 192.78125 88.15625 192.277344 88.339844 C 191.316406 88.660156 190.585938 89.4375 190.585938 90.535156 L 190.585938 120.808594 C 190.585938 122.824219 188.9375 124.472656 186.925781 124.472656 C 184.910156 124.472656 183.261719 122.824219 183.261719 120.808594 L 183.261719 90.535156 C 183.261719 85.773438 186.191406 82.75 189.898438 81.46875 C 191.226562 81.011719 192.644531 80.78125 193.972656 80.78125 C 195.34375 80.78125 196.765625 81.011719 198.089844 81.46875 C 201.796875 82.75 204.726562 85.773438 204.726562 90.535156 C 204.726562 92.917969 203.765625 95.117188 202.164062 96.855469 C 200.652344 98.460938 198.546875 99.652344 196.214844 100.109375 Z M 196.214844 100.109375 " fill-opacity="1" fill-rule="nonzero"/><path fill="#f26722" d="M 94.207031 108.71875 L 87.800781 108.71875 L 80.660156 126.671875 L 73.429688 108.671875 L 40.753906 108.671875 C 36.632812 108.671875 33.246094 105.285156 33.246094 101.164062 L 33.246094 56.691406 C 33.246094 52.570312 36.632812 49.179688 40.753906 49.179688 L 94.160156 49.179688 C 98.277344 49.179688 101.664062 52.570312 101.664062 56.691406 L 101.664062 101.207031 C 101.664062 105.328125 98.324219 108.71875 94.207031 108.71875 Z M 94.207031 108.71875 " fill-opacity="1" fill-rule="evenodd"/><path fill="#ffcd05" d="M 48.441406 49.179688 L 94.160156 49.179688 C 98.277344 49.179688 101.664062 52.570312 101.664062 56.691406 L 101.664062 95.253906 L 54.757812 95.253906 C 51.277344 95.253906 48.441406 92.414062 48.441406 88.933594 Z M 48.441406 49.179688 " fill-opacity="1" fill-rule="evenodd"/><path fill="#cb3727" d="M 88.074219 71.894531 C 90.085938 71.894531 91.734375 73.546875 91.734375 75.558594 C 91.734375 77.574219 90.085938 79.222656 88.074219 79.222656 L 60.386719 79.222656 C 58.371094 79.222656 56.726562 77.574219 56.726562 75.558594 C 56.726562 73.546875 58.371094 71.894531 60.386719 71.894531 Z M 88.074219 88.980469 C 90.085938 88.980469 91.734375 90.628906 91.734375 92.644531 C 91.734375 94.660156 90.085938 96.308594 88.074219 96.308594 L 76.859375 96.308594 C 74.847656 96.308594 73.199219 94.660156 73.199219 92.644531 C 73.199219 90.628906 74.847656 88.980469 76.859375 88.980469 Z M 61.210938 88.980469 C 63.222656 88.980469 64.871094 90.628906 64.871094 92.644531 C 64.871094 94.660156 63.222656 96.308594 61.210938 96.308594 L 52.925781 96.308594 C 50.914062 96.308594 49.265625 94.660156 49.265625 92.644531 C 49.265625 90.628906 50.914062 88.980469 52.925781 88.980469 Z M 61.210938 88.980469 " fill-opacity="1" fill-rule="nonzero"/><path fill="#ffffff" d="M 85.054688 67.589844 C 87.066406 67.589844 88.714844 69.238281 88.714844 71.253906 C 88.714844 73.269531 87.066406 74.917969 85.054688 74.917969 L 57.367188 74.917969 C 55.351562 74.917969 53.703125 73.269531 53.703125 71.253906 C 53.703125 69.238281 55.351562 67.589844 57.367188 67.589844 Z M 85.054688 84.675781 C 87.066406 84.675781 88.714844 86.324219 88.714844 88.339844 C 88.714844 90.355469 87.066406 92.003906 85.054688 92.003906 L 73.839844 92.003906 C 71.828125 92.003906 70.179688 90.355469 70.179688 88.339844 C 70.179688 86.324219 71.828125 84.675781 73.839844 84.675781 Z M 58.1875 84.675781 C 60.203125 84.675781 61.851562 86.324219 61.851562 88.339844 C 61.851562 90.355469 60.203125 92.003906 58.1875 92.003906 L 49.90625 92.003906 C 47.890625 92.003906 46.246094 90.355469 46.246094 88.339844 C 46.246094 86.324219 47.890625 84.675781 49.90625 84.675781 Z M 58.1875 84.675781 " fill-opacity="1" fill-rule="nonzero"/><g fill="#000000" fill-opacity="1"><g transform="translate(164.384156, 170.891523)"><g><path d="M 0.0625 -0.0625 C 0.0625 -0.09375 0.0664062 -0.113281 0.078125 -0.125 C 0.0859375 -0.144531 0.109375 -0.15625 0.140625 -0.15625 C 0.171875 -0.15625 0.191406 -0.144531 0.203125 -0.125 C 0.222656 -0.113281 0.234375 -0.09375 0.234375 -0.0625 C 0.234375 -0.0390625 0.222656 -0.0195312 0.203125 0 C 0.191406 0.0078125 0.171875 0.015625 0.140625 0.015625 C 0.117188 0.015625 0.0976562 0.0078125 0.078125 0 C 0.0664062 -0.0195312 0.0625 -0.0390625 0.0625 -0.0625 Z M 0.0625 -0.0625 "/></g></g></g></svg>