<svg xmlns="http://www.w3.org/2000/svg" xmlns:xlink="http://www.w3.org/1999/xlink" width="350" zoomAndPan="magnify" viewBox="0 0 262.5 262.500001" height="350" preserveAspectRatio="xMidYMid meet" version="1.0"><defs><g/><clipPath id="dba34a7393"><path d="M 26.199219 57.769531 L 157 57.769531 L 157 161 L 26.199219 161 Z M 26.199219 57.769531 " clip-rule="nonzero"/></clipPath><clipPath id="6bf7045b45"><path d="M 93.644531 137.667969 L 235.765625 137.667969 L 235.765625 204.488281 L 93.644531 204.488281 Z M 93.644531 137.667969 " clip-rule="nonzero"/></clipPath></defs><g clip-path="url(#dba34a7393)"><path fill="#83807b" d="M 156.667969 123.109375 C 156.667969 87.023438 127.46875 57.769531 91.453125 57.769531 C 55.433594 57.769531 26.234375 87.023438 26.234375 123.109375 C 26.234375 137.222656 30.699219 150.289062 38.292969 160.96875 L 144.609375 160.96875 C 152.203125 150.289062 156.667969 137.222656 156.667969 123.109375 " fill-opacity="1" fill-rule="nonzero"/></g><path fill="#dceef4" d="M 150.710938 123.109375 C 150.710938 155.898438 124.179688 182.476562 91.453125 182.476562 C 58.722656 182.476562 32.191406 155.898438 32.191406 123.109375 C 32.191406 90.320312 58.722656 63.742188 91.453125 63.742188 C 124.179688 63.742188 150.710938 90.320312 150.710938 123.109375 " fill-opacity="1" fill-rule="nonzero"/><path fill="#b5b1ac" d="M 144.609375 160.96875 L 38.292969 160.96875 C 50.117188 177.601562 69.519531 188.445312 91.453125 188.445312 C 113.382812 188.445312 132.785156 177.601562 144.609375 160.96875 " fill-opacity="1" fill-rule="nonzero"/><path fill="#ffbe31" d="M 58.289062 160.96875 L 42.449219 160.96875 L 42.449219 86.664062 L 58.289062 86.664062 L 58.289062 160.96875 " fill-opacity="1" fill-rule="nonzero"/><path fill="#005c88" d="M 81.828125 160.96875 L 65.988281 160.96875 L 65.988281 99.855469 L 81.828125 99.855469 L 81.828125 160.96875 " fill-opacity="1" fill-rule="nonzero"/><path fill="#ff90b6" d="M 94.214844 160.96875 L 78.378906 160.96875 L 78.378906 72.457031 L 94.214844 72.457031 L 94.214844 160.96875 " fill-opacity="1" fill-rule="nonzero"/><path fill="#798f9f" d="M 69.023438 160.96875 L 53.1875 160.96875 L 53.1875 113.457031 L 69.023438 113.457031 L 69.023438 160.96875 " fill-opacity="1" fill-rule="nonzero"/><path fill="#fd116e" d="M 106.125 160.96875 L 90.289062 160.96875 L 90.289062 90.808594 L 106.125 90.808594 L 106.125 160.96875 " fill-opacity="1" fill-rule="nonzero"/><path fill="#003340" d="M 128.984375 160.96875 L 113.144531 160.96875 L 113.144531 94.949219 L 128.984375 94.949219 L 128.984375 160.96875 " fill-opacity="1" fill-rule="nonzero"/><path fill="#00b769" d="M 118.925781 160.96875 L 103.089844 160.96875 L 103.089844 109.371094 L 118.925781 109.371094 L 118.925781 160.96875 " fill-opacity="1" fill-rule="nonzero"/><path fill="#ff9480" d="M 140.453125 160.96875 L 124.613281 160.96875 L 124.613281 114.976562 L 140.453125 114.976562 L 140.453125 160.96875 " fill-opacity="1" fill-rule="nonzero"/><g clip-path="url(#6bf7045b45)"><path fill="#f4b789" d="M 164.730469 204.488281 C 148.144531 204.492188 131.980469 201.273438 119.21875 195.421875 C 106.320312 189.507812 97.433594 181.167969 94.207031 171.941406 L 93.683594 170.441406 L 94.839844 169.355469 C 102.035156 162.574219 110.660156 154.816406 121.960938 148.59375 C 135.230469 141.285156 149.210938 137.730469 164.703125 137.722656 C 199.496094 137.710938 209.042969 146.300781 234.554688 169.261719 L 235.765625 170.347656 L 235.226562 171.882812 C 232.007812 181.113281 223.132812 189.457031 210.234375 195.386719 C 197.476562 201.246094 181.316406 204.480469 164.730469 204.488281 " fill-opacity="1" fill-rule="nonzero"/></g><path fill="#ffffff" d="M 99.378906 171.785156 C 102.582031 179.179688 110.277344 185.953125 121.25 190.984375 C 133.386719 196.550781 148.828125 199.609375 164.726562 199.605469 C 180.628906 199.597656 196.066406 196.523438 208.199219 190.949219 C 219.148438 185.914062 226.832031 179.148438 230.042969 171.765625 C 205.820312 149.972656 197.078125 142.59375 164.703125 142.605469 C 150.054688 142.613281 136.839844 145.972656 124.304688 152.871094 C 114.117188 158.484375 106.113281 165.488281 99.378906 171.785156 " fill-opacity="1" fill-rule="nonzero"/><path fill="#6ea9b7" d="M 199.519531 171.089844 C 199.527344 188.089844 183.953125 201.878906 164.730469 201.886719 C 145.507812 201.894531 129.921875 188.117188 129.914062 171.121094 C 129.90625 154.121094 145.484375 140.332031 164.703125 140.324219 C 183.925781 140.316406 199.515625 154.09375 199.519531 171.089844 " fill-opacity="1" fill-rule="nonzero"/><path fill="#1a1a1a" d="M 179.84375 171.097656 C 179.847656 179.105469 173.507812 185.59375 165.683594 185.597656 C 157.859375 185.601562 151.515625 179.117188 151.511719 171.109375 C 151.507812 163.105469 157.847656 156.613281 165.671875 156.613281 C 173.496094 156.609375 179.839844 163.09375 179.84375 171.097656 " fill-opacity="1" fill-rule="nonzero"/><path fill="#f4b789" d="M 226.203125 146.539062 C 190.328125 106.699219 135.125 114.621094 86.296875 156.644531 C 144.683594 118.992188 182.019531 118.835938 226.203125 146.8125 L 226.203125 146.539062 " fill-opacity="1" fill-rule="nonzero"/><path fill="#ffffff" d="M 188.097656 171.09375 C 188.097656 175.207031 184.773438 178.542969 180.667969 178.542969 C 176.5625 178.546875 173.234375 175.214844 173.234375 171.101562 C 173.234375 166.988281 176.558594 163.65625 180.664062 163.652344 C 184.765625 163.652344 188.09375 166.984375 188.097656 171.09375 " fill-opacity="1" fill-rule="nonzero"/><g fill="#000000" fill-opacity="1"><g transform="translate(164.384156, 170.891523)"><g><path d="M 0.0625 -0.0625 C 0.0625 -0.09375 0.0664062 -0.113281 0.078125 -0.125 C 0.0859375 -0.144531 0.109375 -0.15625 0.140625 -0.15625 C 0.171875 -0.15625 0.191406 -0.144531 0.203125 -0.125 C 0.222656 -0.113281 0.234375 -0.09375 0.234375 -0.0625 C 0.234375 -0.0390625 0.222656 -0.0195312 0.203125 0 C 0.191406 0.0078125 0.171875 0.015625 0.140625 0.015625 C 0.117188 0.015625 0.0976562 0.0078125 0.078125 0 C 0.0664062 -0.0195312 0.0625 -0.0390625 0.0625 -0.0625 Z M 0.0625 -0.0625 "/></g></g></g></svg>