<svg xmlns="http://www.w3.org/2000/svg" xmlns:xlink="http://www.w3.org/1999/xlink" width="350" zoomAndPan="magnify" viewBox="0 0 262.5 262.500001" height="350" preserveAspectRatio="xMidYMid meet" version="1.0"><defs><g/><clipPath id="6e5a69d48a"><path d="M 187.898438 119.796875 L 233.179688 119.796875 L 233.179688 146.3125 L 187.898438 146.3125 Z M 187.898438 119.796875 " clip-rule="nonzero"/></clipPath><clipPath id="da3bc67b77"><path d="M 28.820312 157 L 56 157 L 56 193 L 28.820312 193 Z M 28.820312 157 " clip-rule="nonzero"/></clipPath><clipPath id="5e9dd15b74"><path d="M 135 26.199219 L 185 26.199219 L 185 92 L 135 92 Z M 135 26.199219 " clip-rule="nonzero"/></clipPath></defs><path fill="#2c6bdb" d="M 228.847656 122.460938 C 226.484375 121.097656 222.660156 121.097656 220.296875 122.460938 L 122.597656 178.871094 L 130.398438 184.234375 L 228.847656 127.394531 C 231.207031 126.03125 231.207031 123.820312 228.847656 122.460938 " fill-opacity="1" fill-rule="nonzero"/><g clip-path="url(#6e5a69d48a)"><path fill="#2c6bdb" d="M 188.605469 128.296875 L 220.414062 127.328125 L 218.738281 145.691406 L 230.808594 146.0625 L 233.191406 119.953125 L 187.96875 121.328125 L 188.605469 128.296875 " fill-opacity="1" fill-rule="nonzero"/></g><path fill="#7dbbf9" d="M 191.398438 177.746094 L 230.570312 176.441406 L 224.21875 154.085938 L 212.289062 155.21875 L 216.46875 169.921875 L 190.703125 170.777344 L 191.398438 177.746094 " fill-opacity="1" fill-rule="nonzero"/><path fill="#7dbbf9" d="M 224.066406 168.847656 C 218.371094 165.554688 211.722656 163.007812 204.308594 161.273438 C 197.152344 159.597656 189.59375 158.75 181.839844 158.75 C 174.085938 158.75 166.527344 159.597656 159.371094 161.273438 C 151.960938 163.007812 145.3125 165.554688 139.617188 168.847656 L 123.683594 178.046875 L 131.328125 183.5 L 148.164062 173.78125 C 152.710938 171.15625 158.011719 169.125 163.914062 167.742188 C 169.621094 166.40625 175.652344 165.726562 181.839844 165.726562 C 188.03125 165.726562 194.0625 166.40625 199.765625 167.742188 C 205.671875 169.125 210.972656 171.15625 215.519531 173.78125 C 217.878906 175.144531 221.707031 175.144531 224.066406 173.78125 C 226.425781 172.417969 226.425781 170.207031 224.066406 168.847656 " fill-opacity="1" fill-rule="nonzero"/><path fill="#478aea" d="M 132.605469 143.910156 L 145.074219 144.324219 L 146.546875 129.578125 L 171.792969 131.96875 L 173.816406 124.855469 L 134.875 121.164062 L 132.605469 143.910156 " fill-opacity="1" fill-rule="nonzero"/><path fill="#478aea" d="M 165.910156 149.433594 C 165.910156 153.925781 164.433594 158.304688 161.519531 162.449219 C 158.507812 166.742188 154.078125 170.59375 148.359375 173.894531 L 125.453125 187.121094 L 93.734375 205.648438 C 92.828125 204.914062 91.808594 204.214844 90.667969 203.554688 C 88.746094 202.445312 86.617188 201.53125 84.355469 200.804688 L 117.339844 181.605469 L 139.527344 168.796875 C 144.054688 166.179688 147.5625 163.132812 149.945312 159.738281 C 152.25 156.460938 153.417969 152.992188 153.417969 149.433594 C 153.417969 145.875 152.25 142.40625 149.945312 139.128906 C 147.5625 135.734375 144.054688 132.6875 139.527344 130.074219 L 135.109375 127.523438 L 143.945312 122.421875 L 148.359375 124.972656 C 154.078125 128.273438 158.507812 132.125 161.519531 136.417969 C 164.433594 140.5625 165.910156 144.941406 165.910156 149.433594 " fill-opacity="1" fill-rule="nonzero"/><path fill="#478aea" d="M 85.035156 206.179688 C 73.945312 199.777344 55.964844 199.777344 44.875 206.179688 C 33.785156 212.582031 33.785156 222.964844 44.875 229.367188 C 55.964844 235.769531 73.945312 235.769531 85.035156 229.367188 C 96.125 222.964844 96.125 212.582031 85.035156 206.179688 " fill-opacity="1" fill-rule="nonzero"/><path fill="#fca7a7" d="M 38.441406 151.019531 C 38.292969 152.292969 38.210938 153.65625 38.210938 155.101562 C 38.210938 156.175781 38.257812 157.300781 38.359375 158.472656 C 38.507812 160.203125 40.039062 161.492188 41.773438 161.339844 C 43.511719 161.1875 44.792969 159.660156 44.644531 157.925781 C 44.558594 156.933594 44.519531 155.996094 44.519531 155.101562 C 44.519531 153.898438 44.589844 152.78125 44.707031 151.746094 C 44.910156 150.015625 43.667969 148.449219 41.9375 148.25 C 40.207031 148.050781 38.644531 149.289062 38.441406 151.019531 " fill-opacity="1" fill-rule="nonzero"/><g clip-path="url(#da3bc67b77)"><path fill="#c3d3fc" d="M 30.359375 192.429688 C 30.992188 192.757812 32.234375 193.179688 33.953125 192.164062 L 35.972656 190.398438 L 54.421875 169.46875 C 54.695312 169.1875 54.851562 168.8125 54.851562 168.417969 L 55.230469 161.277344 C 55.230469 158.480469 54.585938 158.363281 54.152344 158.085938 C 52.941406 157.316406 51.402344 157.28125 50.160156 158 L 30.75 169.175781 C 29.558594 169.863281 28.820312 171.136719 28.820312 172.515625 L 28.820312 190.460938 C 28.820312 191.804688 29.804688 192.144531 30.359375 192.429688 " fill-opacity="1" fill-rule="nonzero"/></g><path fill="#191890" d="M 33.953125 192.164062 L 54.535156 180.3125 C 54.964844 180.0625 55.230469 179.605469 55.230469 179.105469 L 55.230469 161.316406 C 55.230469 160.246094 54.074219 159.578125 53.144531 160.113281 L 32.566406 171.964844 C 32.132812 172.210938 31.867188 172.671875 31.867188 173.167969 L 31.867188 190.957031 C 31.867188 192.027344 33.027344 192.699219 33.953125 192.164062 " fill-opacity="1" fill-rule="nonzero"/><path fill="#191890" d="M 39.960938 158.601562 L 43.621094 156.488281 C 44.558594 155.945312 45.503906 155.871094 46.214844 156.28125 C 46.839844 156.640625 47.199219 157.339844 47.199219 158.199219 L 47.199219 161.9375 C 47.199219 162.402344 46.820312 162.785156 46.351562 162.785156 C 45.882812 162.785156 45.503906 162.402344 45.503906 161.9375 L 45.503906 158.199219 C 45.503906 157.96875 45.449219 157.796875 45.363281 157.746094 C 45.273438 157.695312 44.964844 157.671875 44.46875 157.957031 L 40.808594 160.070312 C 39.808594 160.648438 38.929688 162.007812 38.929688 162.972656 L 38.929688 166.710938 C 38.929688 167.179688 38.550781 167.558594 38.082031 167.558594 C 37.609375 167.558594 37.230469 167.179688 37.230469 166.710938 L 37.230469 162.972656 C 37.230469 161.40625 38.429688 159.484375 39.960938 158.601562 " fill-opacity="1" fill-rule="nonzero"/><path fill="#b0c5ea" d="M 47.648438 106.539062 C 47.269531 106.890625 44.601562 109.558594 42.074219 115.796875 C 39.539062 122.042969 37.136719 131.832031 37.140625 146.445312 C 37.140625 148.273438 37.175781 150.175781 37.253906 152.160156 C 37.339844 154.257812 39.113281 155.894531 41.214844 155.808594 C 43.3125 155.726562 44.949219 153.953125 44.863281 151.855469 C 44.789062 149.96875 44.753906 148.167969 44.753906 146.445312 C 44.753906 132.65625 47.007812 123.886719 49.128906 118.664062 C 50.1875 116.050781 51.21875 114.324219 51.933594 113.289062 C 52.289062 112.773438 52.566406 112.433594 52.734375 112.242188 C 52.816406 112.144531 52.871094 112.085938 52.890625 112.0625 L 52.90625 112.050781 L 52.871094 112.019531 L 52.902344 112.050781 L 52.90625 112.050781 L 52.871094 112.019531 L 52.902344 112.050781 L 51.375 110.511719 L 52.859375 112.097656 L 52.902344 112.050781 L 51.375 110.511719 L 52.859375 112.097656 C 54.394531 110.65625 54.46875 108.25 53.03125 106.714844 C 51.59375 105.179688 49.183594 105.101562 47.648438 106.539062 " fill-opacity="1" fill-rule="nonzero"/><path fill="#fca7a7" d="M 41.175781 157.238281 L 41.355469 157.851562 C 41.539062 158.488281 42.199219 158.855469 42.835938 158.667969 C 43.46875 158.488281 43.835938 157.824219 43.652344 157.1875 L 43.476562 156.574219 C 43.292969 155.941406 42.628906 155.574219 41.996094 155.757812 C 41.359375 155.941406 40.996094 156.605469 41.175781 157.238281 " fill-opacity="1" fill-rule="nonzero"/><path fill="#fca7a7" d="M 56.289062 103.042969 L 56.289062 110.921875 C 56.289062 112.664062 57.703125 114.078125 59.445312 114.078125 C 61.1875 114.078125 62.597656 112.664062 62.597656 110.921875 L 62.597656 103.042969 C 62.597656 101.300781 61.1875 99.890625 59.445312 99.890625 C 57.703125 99.890625 56.289062 101.300781 56.289062 103.042969 " fill-opacity="1" fill-rule="nonzero"/><path fill="#fca7a7" d="M 59.539062 89.957031 L 64.898438 89.957031 C 67.308594 89.957031 69.257812 91.90625 69.257812 94.316406 L 69.257812 103.554688 C 69.257812 108.476562 63.785156 111.421875 59.675781 108.710938 L 54.902344 105.5 C 52.585938 103.648438 52.039062 102.300781 52.039062 99.746094 C 52.039062 91.378906 55.359375 89.957031 59.539062 89.957031 " fill-opacity="1" fill-rule="nonzero"/><path fill="#242884" d="M 63.613281 220.519531 C 65.753906 218.320312 68.515625 217.339844 71.378906 216.679688 C 72.769531 216.359375 74.179688 216.136719 75.617188 216.015625 C 77.054688 215.890625 78.5 215.871094 80.035156 216.050781 C 82.082031 216.269531 82.859375 218.949219 81.277344 220.234375 C 79.164062 222.105469 76.796875 223.511719 74.375 224.824219 C 71.949219 226.109375 69.523438 227.265625 66.722656 227.34375 C 63.117188 227.511719 61.148438 223.089844 63.613281 220.519531 " fill-opacity="1" fill-rule="nonzero"/><path fill="#242884" d="M 45.664062 211.058594 C 48.976562 207.796875 53.554688 206.878906 57.964844 206.246094 C 59.441406 206.074219 60.929688 206 62.507812 206.121094 C 64.578125 206.253906 65.449219 208.933594 63.886719 210.261719 C 61.707031 212.238281 59.265625 213.738281 56.757812 215.136719 C 54.25 216.503906 51.726562 217.726562 48.824219 217.882812 C 45.175781 218.121094 43.152344 213.640625 45.664062 211.058594 " fill-opacity="1" fill-rule="nonzero"/><path fill="#4534dc" d="M 46.464844 160.101562 L 47.210938 159.980469 L 46.464844 160.097656 L 46.464844 160.101562 L 47.210938 159.980469 L 46.464844 160.097656 C 46.476562 160.191406 47.730469 168.039062 47.730469 180.378906 C 47.730469 188.78125 47.148438 199.265625 45.214844 210.800781 C 44.867188 212.875 46.265625 214.839844 48.339844 215.183594 C 50.414062 215.535156 52.375 214.136719 52.722656 212.0625 C 54.742188 200.03125 55.34375 189.128906 55.34375 180.378906 C 55.34375 167.320312 54.003906 159.035156 53.980469 158.878906 C 53.640625 156.804688 51.683594 155.394531 49.609375 155.730469 C 47.535156 156.070312 46.125 158.027344 46.464844 160.101562 " fill-opacity="1" fill-rule="nonzero"/><path fill="#4534dc" d="M 68.359375 154.429688 L 50.328125 144.144531 C 48.464844 143.183594 46.246094 144.539062 46.246094 146.632812 C 46.242188 149.675781 46.242188 155.625 46.253906 157.535156 C 46.269531 160.914062 46.769531 163.738281 49.652344 165.695312 C 51.972656 167.269531 62.214844 173.851562 66.132812 173.742188 C 70.046875 173.632812 72.386719 170.773438 72.386719 167.867188 L 72.386719 160.65625 C 72.386719 157.96875 70.808594 155.53125 68.359375 154.429688 " fill-opacity="1" fill-rule="nonzero"/><path fill="#c3d3fc" d="M 72.386719 160.59375 C 72.386719 160.59375 72.386719 128.675781 72.386719 125.871094 C 72.386719 123.0625 71.941406 116.722656 66.085938 113.335938 C 60.226562 109.957031 57.269531 108.25 53.691406 106.183594 C 50.117188 104.121094 46.253906 105.285156 46.253906 111.300781 L 46.144531 146.976562 C 46.144531 149.523438 45.792969 151.761719 48.171875 153.683594 C 51.847656 156.65625 57.136719 160.816406 63.359375 162.28125 C 71.019531 164.085938 72.386719 160.59375 72.386719 160.59375 " fill-opacity="1" fill-rule="nonzero"/><path fill="#ea9292" d="M 76.351562 107.664062 L 71.738281 102.125 C 70.625 100.789062 68.636719 100.605469 67.296875 101.71875 C 65.957031 102.835938 65.777344 104.824219 66.890625 106.164062 L 71.503906 111.703125 C 72.617188 113.039062 74.605469 113.222656 75.945312 112.109375 C 77.285156 110.992188 77.464844 109.007812 76.351562 107.664062 " fill-opacity="1" fill-rule="nonzero"/><path fill="#ea9292" d="M 66.914062 109.0625 L 69.839844 108.757812 C 70.496094 108.6875 70.972656 108.101562 70.90625 107.441406 C 70.835938 106.785156 70.246094 106.308594 69.589844 106.378906 L 66.667969 106.683594 C 66.007812 106.75 65.53125 107.339844 65.601562 108 C 65.667969 108.65625 66.257812 109.132812 66.914062 109.0625 " fill-opacity="1" fill-rule="nonzero"/><path fill="#c3d3fc" d="M 88.507812 121.039062 L 75.417969 105.644531 C 74.058594 104.042969 71.65625 103.851562 70.050781 105.210938 C 68.449219 106.574219 68.253906 108.976562 69.617188 110.578125 L 82.707031 125.972656 C 84.070312 127.574219 86.472656 127.769531 88.074219 126.40625 C 89.675781 125.042969 89.871094 122.640625 88.507812 121.039062 " fill-opacity="1" fill-rule="nonzero"/><path fill="#4534dc" d="M 64.910156 168.769531 L 64.949219 168.757812 L 64.910156 168.769531 L 64.949219 168.757812 L 64.910156 168.769531 C 64.976562 169.015625 67.046875 176.878906 67.046875 189.71875 C 67.046875 197.757812 66.238281 207.75 63.621094 219.0625 C 63.144531 221.109375 64.421875 223.152344 66.46875 223.628906 C 68.519531 224.101562 70.5625 222.828125 71.039062 220.777344 C 73.800781 208.839844 74.664062 198.269531 74.664062 189.71875 C 74.660156 175.617188 72.320312 167.007812 72.25 166.75 C 71.691406 164.722656 69.597656 163.53125 67.570312 164.089844 C 65.542969 164.644531 64.351562 166.742188 64.910156 168.769531 " fill-opacity="1" fill-rule="nonzero"/><path fill="#191890" d="M 54.042969 105.042969 C 57.894531 106.695312 61.835938 101.761719 62.382812 97.246094 C 62.382812 97.246094 71.25 95.863281 71.257812 90.515625 C 71.265625 85.347656 64.613281 83.949219 59.183594 85.621094 C 53.949219 87.226562 50.746094 90.78125 50.484375 94.242188 C 50.144531 98.800781 51.171875 103.8125 54.042969 105.042969 " fill-opacity="1" fill-rule="nonzero"/><path fill="#fca7a7" d="M 61.863281 99.191406 C 60.914062 98.367188 59.601562 98.601562 58.929688 99.714844 C 58.257812 100.824219 58.484375 102.394531 59.429688 103.222656 C 60.382812 104.046875 61.695312 103.816406 62.367188 102.703125 C 63.039062 101.589844 62.816406 100.019531 61.863281 99.191406 " fill-opacity="1" fill-rule="nonzero"/><path fill="#c3d3fc" d="M 66.082031 125.183594 L 85.191406 127.289062 C 87.28125 127.523438 89.160156 126.011719 89.394531 123.921875 C 89.621094 121.835938 88.117188 119.953125 86.027344 119.722656 L 66.914062 117.617188 C 64.824219 117.386719 62.945312 118.890625 62.714844 120.984375 C 62.484375 123.074219 63.992188 124.953125 66.082031 125.183594 " fill-opacity="1" fill-rule="nonzero"/><path fill="#92afea" d="M 154.621094 102.28125 L 154.621094 103.460938 C 154.621094 104.167969 155.152344 104.871094 156.203125 105.40625 C 158.3125 106.484375 161.730469 106.484375 163.839844 105.40625 C 164.890625 104.871094 165.417969 104.167969 165.417969 103.460938 L 165.417969 102.28125 L 154.621094 102.28125 " fill-opacity="1" fill-rule="nonzero"/><path fill="#b8d3f4" d="M 152.367188 97.855469 L 152.367188 99.753906 C 152.367188 100.886719 153.113281 102.015625 154.609375 102.878906 C 157.597656 104.605469 162.445312 104.605469 165.433594 102.878906 C 166.929688 102.015625 167.675781 100.886719 167.675781 99.753906 L 167.675781 97.855469 L 152.367188 97.855469 " fill-opacity="1" fill-rule="nonzero"/><path fill="#dceeff" d="M 152.367188 96.570312 L 152.367188 98.46875 C 152.367188 99.601562 153.113281 100.734375 154.609375 101.597656 C 157.597656 103.320312 162.445312 103.320312 165.433594 101.597656 C 166.929688 100.734375 167.675781 99.601562 167.675781 98.46875 L 167.675781 96.570312 L 152.367188 96.570312 " fill-opacity="1" fill-rule="nonzero"/><path fill="#b8d3f4" d="M 150.667969 93.789062 L 150.667969 95.714844 C 150.667969 97.09375 151.582031 98.480469 153.40625 99.53125 C 157.058594 101.640625 162.980469 101.640625 166.632812 99.53125 C 168.460938 98.480469 169.375 97.09375 169.375 95.714844 L 169.375 93.789062 L 150.667969 93.789062 " fill-opacity="1" fill-rule="nonzero"/><path fill="#dceeff" d="M 150.667969 91.667969 L 150.667969 93.59375 C 150.667969 94.976562 151.582031 96.359375 153.40625 97.414062 C 157.058594 99.523438 162.980469 99.523438 166.632812 97.414062 C 168.460938 96.359375 169.375 94.976562 169.375 93.59375 L 169.375 91.667969 L 150.667969 91.667969 " fill-opacity="1" fill-rule="nonzero"/><path fill="#b8d3f4" d="M 150.667969 89.742188 L 150.667969 91.667969 C 150.667969 93.050781 151.582031 94.433594 153.40625 95.488281 C 157.058594 97.597656 162.980469 97.597656 166.632812 95.488281 C 168.460938 94.433594 169.375 93.050781 169.375 91.667969 L 169.375 89.742188 L 150.667969 89.742188 " fill-opacity="1" fill-rule="nonzero"/><path fill="#dceeff" d="M 150.667969 87.785156 L 150.667969 89.710938 C 150.667969 91.09375 151.582031 92.476562 153.40625 93.53125 C 157.058594 95.636719 162.980469 95.636719 166.632812 93.53125 C 168.460938 92.476562 169.375 91.09375 169.375 89.710938 L 169.375 87.785156 L 150.667969 87.785156 " fill-opacity="1" fill-rule="nonzero"/><path fill="#b8d3f4" d="M 150.667969 85.859375 L 150.667969 87.785156 C 150.667969 89.167969 151.582031 90.546875 153.40625 91.601562 C 157.058594 93.710938 162.980469 93.710938 166.632812 91.601562 C 168.460938 90.546875 169.375 89.167969 169.375 87.785156 L 169.375 85.859375 L 150.667969 85.859375 " fill-opacity="1" fill-rule="nonzero"/><path fill="#2a8efe" d="M 166.632812 82.039062 C 170.285156 84.148438 170.285156 87.570312 166.632812 89.675781 C 162.980469 91.785156 157.058594 91.785156 153.40625 89.675781 C 149.753906 87.570312 149.753906 84.148438 153.40625 82.039062 C 157.058594 79.933594 162.980469 79.933594 166.632812 82.039062 " fill-opacity="1" fill-rule="nonzero"/><g clip-path="url(#5e9dd15b74)"><path fill="#fce03d" d="M 184.132812 50.332031 C 184.132812 37.015625 173.335938 26.222656 160.019531 26.222656 C 146.703125 26.222656 135.910156 37.015625 135.910156 50.332031 C 135.910156 56.992188 138.609375 63.019531 142.972656 67.382812 C 147.851562 72.253906 150.640625 78.835938 150.640625 85.730469 L 150.640625 86.027344 C 150.640625 87.390625 151.554688 88.753906 153.386719 89.796875 C 157.050781 91.875 162.992188 91.875 166.65625 89.796875 C 168.484375 88.753906 169.398438 87.390625 169.398438 86.027344 L 169.398438 85.730469 C 169.398438 78.835938 172.191406 72.253906 177.066406 67.382812 C 181.433594 63.019531 184.132812 56.992188 184.132812 50.332031 " fill-opacity="1" fill-rule="nonzero"/></g><path fill="#ffa64d" d="M 165.050781 83.257812 C 167.828125 84.835938 167.828125 87.394531 165.050781 88.96875 C 162.273438 90.546875 157.769531 90.546875 154.992188 88.96875 C 152.214844 87.394531 152.214844 84.835938 154.992188 83.257812 C 157.769531 81.679688 162.273438 81.679688 165.050781 83.257812 " fill-opacity="1" fill-rule="nonzero"/><path fill="#fdec8b" d="M 146.425781 50.378906 C 144.136719 50.378906 142.222656 49.648438 141.082031 48.136719 C 138.378906 44.5625 141.074219 37.972656 147.101562 33.417969 C 150.585938 30.785156 154.421875 29.410156 157.5625 29.410156 C 159.847656 29.410156 161.765625 30.140625 162.90625 31.648438 C 165.605469 35.222656 162.914062 41.816406 156.886719 46.371094 C 153.398438 49.003906 149.5625 50.378906 146.425781 50.378906 " fill-opacity="1" fill-rule="nonzero"/><path fill="#ffffff" d="M 164.554688 52.75 C 163.796875 54.335938 163.402344 55.972656 163.445312 57.367188 L 163.449219 57.449219 C 163.460938 57.796875 163.542969 57.929688 163.566406 57.960938 L 163.628906 57.984375 C 164.132812 57.976562 165.363281 56.792969 165.363281 55.277344 C 165.359375 55.207031 165.359375 55.132812 165.359375 55.0625 C 165.335938 53.996094 165.046875 53.179688 164.554688 52.75 Z M 167.871094 59.957031 L 167.867188 59.972656 Z M 158.675781 56.996094 C 157.9375 58.535156 157.546875 60.128906 157.582031 61.492188 C 157.582031 61.5625 157.585938 61.632812 157.585938 61.703125 C 157.605469 62.042969 157.683594 62.167969 157.707031 62.199219 L 157.765625 62.222656 C 157.953125 62.214844 158.386719 62 158.816406 61.429688 C 159.257812 60.851562 159.507812 60.140625 159.5 59.492188 L 159.5 59.40625 C 159.480469 58.292969 159.183594 57.4375 158.675781 56.996094 Z M 157.472656 87.835938 C 157.175781 87.835938 156.921875 87.605469 156.898438 87.300781 L 155.394531 68.976562 C 154.265625 69.546875 153.160156 69.628906 152.277344 69.175781 C 151.65625 68.863281 150.609375 67.996094 150.558594 65.75 C 150.519531 64.15625 150.980469 62.3125 151.847656 60.554688 C 152.71875 58.796875 153.902344 57.328125 155.183594 56.417969 C 156.4375 55.527344 157.441406 55.40625 158.144531 55.515625 C 158.945312 54.136719 159.941406 52.980469 161.003906 52.214844 C 162.28125 51.289062 163.308594 51.164062 164.019531 51.273438 C 164.804688 49.914062 165.78125 48.777344 166.820312 48.015625 C 168.679688 46.652344 170.003906 46.960938 170.628906 47.269531 C 171.261719 47.582031 172.332031 48.457031 172.382812 50.804688 C 172.453125 53.941406 170.433594 58.066406 167.855469 60.0625 L 163.71875 84.398438 C 163.667969 84.714844 163.367188 84.925781 163.050781 84.871094 C 162.734375 84.820312 162.523438 84.519531 162.574219 84.203125 L 166.722656 59.796875 C 166.757812 59.5625 166.886719 59.335938 167.066406 59.199219 C 169.382812 57.460938 171.285156 53.628906 171.222656 50.828125 C 171.191406 49.5625 170.792969 48.644531 170.117188 48.3125 C 169.453125 47.984375 168.503906 48.21875 167.507812 48.949219 C 166.628906 49.59375 165.800781 50.554688 165.109375 51.710938 C 165.722656 52.144531 166.476562 53.074219 166.519531 55.035156 C 166.523438 55.117188 166.523438 55.195312 166.523438 55.273438 C 166.523438 57.296875 164.917969 59.121094 163.652344 59.148438 C 163.023438 59.15625 162.332031 58.730469 162.289062 57.492188 L 162.285156 57.402344 C 162.238281 55.875 162.644531 54.109375 163.433594 52.40625 C 162.910156 52.445312 162.3125 52.703125 161.679688 53.15625 C 160.785156 53.804688 159.933594 54.777344 159.230469 55.957031 C 159.855469 56.398438 160.628906 57.359375 160.660156 59.390625 L 160.660156 59.480469 C 160.671875 60.394531 160.34375 61.339844 159.742188 62.128906 C 159.164062 62.898438 158.4375 63.363281 157.796875 63.382812 L 157.761719 63.382812 C 157.148438 63.382812 156.484375 62.957031 156.429688 61.753906 C 156.421875 61.675781 156.421875 61.597656 156.417969 61.519531 C 156.386719 60.023438 156.789062 58.304688 157.558594 56.648438 C 157.046875 56.6875 156.46875 56.929688 155.855469 57.363281 C 154.730469 58.164062 153.675781 59.480469 152.890625 61.070312 C 152.101562 62.664062 151.6875 64.316406 151.71875 65.726562 C 151.746094 66.941406 152.128906 67.800781 152.804688 68.144531 C 153.480469 68.488281 154.445312 68.285156 155.445312 67.589844 C 155.636719 67.460938 155.875 67.429688 156.078125 67.511719 C 156.28125 67.589844 156.429688 67.769531 156.472656 67.988281 L 156.484375 68.058594 L 158.054688 87.207031 C 158.078125 87.527344 157.839844 87.808594 157.523438 87.832031 L 157.472656 87.835938 " fill-opacity="1" fill-rule="nonzero"/><g fill="#000000" fill-opacity="1"><g transform="translate(164.384156, 170.891523)"><g><path d="M 0.0625 -0.0625 C 0.0625 -0.09375 0.0664062 -0.113281 0.078125 -0.125 C 0.0859375 -0.144531 0.109375 -0.15625 0.140625 -0.15625 C 0.171875 -0.15625 0.191406 -0.144531 0.203125 -0.125 C 0.222656 -0.113281 0.234375 -0.09375 0.234375 -0.0625 C 0.234375 -0.0390625 0.222656 -0.0195312 0.203125 0 C 0.191406 0.0078125 0.171875 0.015625 0.140625 0.015625 C 0.117188 0.015625 0.0976562 0.0078125 0.078125 0 C 0.0664062 -0.0195312 0.0625 -0.0390625 0.0625 -0.0625 Z M 0.0625 -0.0625 "/></g></g></g></svg>